<?xml version="1.0" encoding="UTF-8" standalone="no"?>
<!-- Created with Inkscape (http://www.inkscape.org/) -->

<svg
   xmlns:dc="http://purl.org/dc/elements/1.1/"
   xmlns:cc="http://creativecommons.org/ns#"
   xmlns:rdf="http://www.w3.org/1999/02/22-rdf-syntax-ns#"
   xmlns:svg="http://www.w3.org/2000/svg"
   xmlns="http://www.w3.org/2000/svg"
   xmlns:sodipodi="http://sodipodi.sourceforge.net/DTD/sodipodi-0.dtd"
   xmlns:inkscape="http://www.inkscape.org/namespaces/inkscape"
   id="svg2"
   version="1.1"
   inkscape:version="0.91 r13725"
   xml:space="preserve"
   width="425.89999"
   height="91.858749"
   viewBox="0 0 425.9 91.858745"
   sodipodi:docname="Logo Magnesium.svg"><metadata
     id="metadata8"><rdf:RDF><cc:Work
         rdf:about=""><dc:format>image/svg+xml</dc:format><dc:type
           rdf:resource="http://purl.org/dc/dcmitype/StillImage" /><dc:title></dc:title></cc:Work></rdf:RDF></metadata><defs
     id="defs6"><clipPath
       clipPathUnits="userSpaceOnUse"
       id="clipPath16"><path
         d="m 0,841.89 595.28,0 L 595.28,0 0,0 0,841.89 Z"
         id="path18"
         inkscape:connector-curvature="0" /></clipPath></defs><sodipodi:namedview
     pagecolor="#ffffff"
     bordercolor="#666666"
     borderopacity="1"
     objecttolerance="10"
     gridtolerance="10"
     guidetolerance="10"
     inkscape:pageopacity="0"
     inkscape:pageshadow="2"
     inkscape:window-width="3840"
     inkscape:window-height="2115"
     id="namedview4"
     showgrid="false"
     inkscape:zoom="1.7940585"
     inkscape:cx="212.94987"
     inkscape:cy="45.929607"
     inkscape:window-x="0"
     inkscape:window-y="45"
     inkscape:window-maximized="1"
     inkscape:current-layer="g12"
     fit-margin-top="0"
     fit-margin-left="0"
     fit-margin-right="0"
     fit-margin-bottom="0" /><g
     id="g10"
     inkscape:groupmode="layer"
     inkscape:label="Logo Magnesium"
     transform="matrix(1.25,0,0,-1.25,-159.10013,572.11037)"><g
       id="g12"><g
         id="g14"
         clip-path="url(#clipPath16)"><g
           id="g20"
           transform="translate(462.3701,391.8383)"><path
             d="m 0,0 c 1.722,0 2.584,1.168 2.584,3.506 0,1.016 -0.238,1.842 -0.715,2.48 C 1.393,6.624 0.776,6.944 0.023,6.944 -0.7,6.944 -1.303,6.644 -1.788,6.043 -2.271,5.445 -2.514,4.66 -2.514,3.69 -2.514,1.23 -1.677,0 0,0 m -5.352,-7.637 0,16.726 2.883,0 0.024,-1.383 c 0.691,1.122 1.745,1.685 3.16,1.685 0.708,0 1.365,-0.14 1.973,-0.416 C 3.295,8.697 3.814,8.297 4.245,7.774 4.677,7.251 5.014,6.613 5.261,5.858 5.506,5.106 5.63,4.252 5.63,3.299 5.63,2.437 5.526,1.65 5.318,0.934 5.11,0.219 4.808,-0.399 4.406,-0.923 4.007,-1.446 3.52,-1.85 2.942,-2.134 2.365,-2.419 1.708,-2.561 0.97,-2.561 c -1.4,0 -2.523,0.591 -3.368,1.776 l 0,-6.852 -2.954,0 z m -6.806,7.59 c 1.829,0 2.745,1.154 2.745,3.462 0,2.291 -0.916,3.437 -2.745,3.437 -1.831,0 -2.745,-1.146 -2.745,-3.437 0,-2.308 0.914,-3.462 2.745,-3.462 m 0,-2.514 c -0.923,0 -1.747,0.146 -2.47,0.438 -0.724,0.292 -1.334,0.7 -1.834,1.224 -0.5,0.521 -0.88,1.153 -1.142,1.891 -0.261,0.738 -0.392,1.545 -0.392,2.423 0,0.891 0.135,1.705 0.403,2.443 0.271,0.739 0.657,1.37 1.166,1.893 0.508,0.523 1.118,0.926 1.833,1.211 0.717,0.285 1.528,0.429 2.436,0.429 0.891,0 1.691,-0.144 2.398,-0.429 0.708,-0.285 1.312,-0.685 1.812,-1.198 0.5,-0.517 0.884,-1.144 1.154,-1.882 0.269,-0.738 0.403,-1.561 0.403,-2.467 0,-0.908 -0.134,-1.728 -0.403,-2.458 -0.27,-0.731 -0.654,-1.356 -1.154,-1.88 -0.5,-0.523 -1.107,-0.927 -1.823,-1.211 -0.715,-0.285 -1.511,-0.427 -2.387,-0.427 m -12.389,2.514 c 1.83,0 2.745,1.154 2.745,3.462 0,2.291 -0.915,3.437 -2.745,3.437 -1.831,0 -2.744,-1.146 -2.744,-3.437 0,-2.308 0.913,-3.462 2.744,-3.462 m 0,-2.514 c -0.922,0 -1.746,0.146 -2.469,0.438 -0.723,0.292 -1.335,0.7 -1.835,1.224 -0.5,0.521 -0.878,1.153 -1.14,1.891 -0.262,0.738 -0.393,1.545 -0.393,2.423 0,0.891 0.134,1.705 0.404,2.443 0.27,0.739 0.657,1.37 1.166,1.893 0.506,0.523 1.118,0.926 1.833,1.211 0.716,0.285 1.526,0.429 2.434,0.429 0.893,0 1.692,-0.144 2.4,-0.429 0.708,-0.285 1.311,-0.685 1.811,-1.198 0.5,-0.517 0.884,-1.144 1.154,-1.882 0.269,-0.738 0.403,-1.561 0.403,-2.467 0,-0.908 -0.134,-1.728 -0.403,-2.458 -0.27,-0.731 -0.654,-1.356 -1.154,-1.88 -0.5,-0.523 -1.107,-0.927 -1.822,-1.211 -0.717,-0.285 -1.512,-0.427 -2.389,-0.427 m -6.414,4.407 c -0.077,-0.661 -0.266,-1.262 -0.566,-1.8 -0.299,-0.539 -0.679,-0.999 -1.141,-1.385 -0.461,-0.385 -0.989,-0.684 -1.581,-0.899 -0.591,-0.215 -1.234,-0.323 -1.926,-0.323 -0.768,0 -1.472,0.125 -2.11,0.38 -0.64,0.254 -1.189,0.638 -1.651,1.154 -0.46,0.514 -0.819,1.154 -1.073,1.916 -0.253,0.761 -0.38,1.648 -0.38,2.664 0,1.014 0.127,1.892 0.38,2.63 0.254,0.738 0.613,1.342 1.073,1.81 0.462,0.469 1.02,0.82 1.673,1.05 0.653,0.23 1.38,0.348 2.18,0.348 0.737,0 1.411,-0.101 2.019,-0.302 0.607,-0.2 1.137,-0.492 1.592,-0.876 0.454,-0.385 0.811,-0.846 1.073,-1.385 0.26,-0.537 0.415,-1.138 0.462,-1.799 l -3.023,0 c -0.077,0.584 -0.312,1.041 -0.704,1.372 -0.393,0.332 -0.873,0.497 -1.44,0.497 -0.326,0 -0.625,-0.054 -0.902,-0.162 -0.276,-0.107 -0.518,-0.288 -0.725,-0.543 -0.208,-0.252 -0.373,-0.59 -0.498,-1.013 -0.123,-0.425 -0.184,-0.943 -0.184,-1.559 0,-1.245 0.223,-2.168 0.669,-2.768 0.446,-0.599 0.962,-0.9 1.546,-0.9 0.584,0 1.084,0.161 1.5,0.485 0.415,0.324 0.653,0.792 0.715,1.408 l 3.022,0 z m -15.862,-0.993 3.207,0 0,-3.114 -3.207,0 0,3.114 z m 42.991,14.926 0,22.203 c 0,2.237 -0.522,4.05 -1.567,5.441 -1.042,1.389 -2.432,2.086 -4.172,2.086 -1.788,0 -3.266,-0.746 -4.431,-2.237 -1.169,-1.488 -1.754,-3.352 -1.754,-5.586 l 0,-21.907 -9.686,0 0,22.055 c 0,1.491 -0.097,2.707 -0.296,3.651 -0.199,0.943 -0.534,1.688 -1.009,2.234 -0.47,0.547 -1.08,0.932 -1.825,1.156 -0.741,0.223 -1.639,0.335 -2.681,0.335 -3.923,0 -5.888,-2.384 -5.888,-7.151 l 0,-22.28 -9.682,0 0,36.659 9.09,0 0,-5.364 c 1.241,2.433 2.731,4.098 4.468,4.991 1.741,0.894 3.825,1.341 6.26,1.341 1.241,0 2.347,-0.099 3.317,-0.299 0.965,-0.199 1.834,-0.533 2.604,-1.005 0.772,-0.473 1.504,-1.081 2.198,-1.826 0.696,-0.743 1.39,-1.639 2.089,-2.681 0.99,2.035 2.308,3.513 3.947,4.432 1.639,0.919 3.625,1.379 5.959,1.379 1.839,0 3.529,-0.311 5.071,-0.932 1.537,-0.62 2.854,-1.489 3.947,-2.607 1.093,-1.118 1.948,-2.42 2.571,-3.911 0.618,-1.491 0.932,-3.081 0.932,-4.769 l 0,-25.408 -9.462,0 z m -56.257,0 0,5.143 c -2.482,-4.075 -6.281,-6.11 -11.397,-6.11 -1.839,0 -3.516,0.322 -5.033,0.967 -1.511,0.647 -2.816,1.566 -3.909,2.758 -1.093,1.192 -1.948,2.607 -2.571,4.246 -0.622,1.639 -0.932,3.478 -0.932,5.515 l 0,24.14 9.687,0 0,-22.651 c 0,-4.57 2.058,-6.853 6.183,-6.853 2.483,0 4.359,0.781 5.625,2.346 1.267,1.565 1.903,3.562 1.903,5.997 l 0,21.161 9.61,0 0,-36.659 -9.166,0 z m -37.849,36.659 9.687,0 0,-36.659 -9.687,0 0,36.659 z m 0,13.412 9.687,0 0,-9.018 -9.687,0 0,9.018 z m -13.185,-24.513 c -0.25,1.688 -0.881,2.916 -1.898,3.687 -1.02,0.768 -2.571,1.154 -4.659,1.154 -1.986,0 -3.49,-0.235 -4.507,-0.707 -1.02,-0.472 -1.528,-1.28 -1.528,-2.421 0,-0.995 0.508,-1.789 1.528,-2.384 1.017,-0.598 2.496,-1.167 4.431,-1.714 3.181,-0.893 5.862,-1.652 8.048,-2.272 2.186,-0.623 3.938,-1.355 5.256,-2.199 1.313,-0.844 2.258,-1.899 2.829,-3.166 0.572,-1.268 0.856,-2.968 0.856,-5.103 0,-3.278 -1.364,-6 -4.096,-8.16 -2.732,-2.16 -6.781,-3.24 -12.148,-3.24 -2.63,0 -5.014,0.296 -7.149,0.893 -2.139,0.596 -3.964,1.453 -5.477,2.571 -1.515,1.117 -2.685,2.459 -3.503,4.022 -0.821,1.565 -1.253,3.316 -1.304,5.255 l 9.983,0 c 0,-1.74 0.683,-3.082 2.05,-4.025 1.364,-0.944 3.143,-1.414 5.329,-1.414 1.838,0 3.413,0.283 4.73,0.856 1.314,0.569 1.974,1.452 1.974,2.644 0,1.341 -0.482,2.311 -1.452,2.906 -0.97,0.597 -2.448,1.118 -4.435,1.565 -3.575,0.794 -6.455,1.626 -8.64,2.497 -2.186,0.868 -3.889,1.826 -5.104,2.867 -1.22,1.045 -2.038,2.186 -2.461,3.429 -0.424,1.241 -0.632,2.63 -0.632,4.172 0,1.389 0.285,2.707 0.857,3.948 0.571,1.241 1.477,2.335 2.719,3.278 1.241,0.945 2.854,1.703 4.845,2.272 1.983,0.572 4.417,0.858 7.298,0.858 5.265,0 9.114,-1.07 11.55,-3.204 2.436,-2.135 3.774,-5.091 4.024,-8.865 l -9.314,0 z m -35.239,-3.651 c -0.051,1.34 -0.288,2.52 -0.708,3.539 -0.423,1.016 -0.983,1.861 -1.677,2.532 -0.699,0.672 -1.491,1.167 -2.385,1.492 -0.893,0.321 -1.812,0.482 -2.758,0.482 -1.935,0 -3.612,-0.707 -5.027,-2.122 -1.419,-1.417 -2.224,-3.39 -2.423,-5.923 l 14.978,0 z m -15.279,-6.11 c 0.153,-2.783 0.958,-4.994 2.423,-6.633 1.466,-1.639 3.393,-2.459 5.778,-2.459 1.588,0 2.99,0.361 4.206,1.082 1.219,0.718 1.999,1.724 2.35,3.016 l 9.984,0 c -1.144,-3.773 -3.13,-6.679 -5.964,-8.717 -2.829,-2.037 -6.209,-3.053 -10.131,-3.053 -12.22,0 -18.328,6.654 -18.328,19.968 0,2.829 0.394,5.388 1.191,7.673 0.796,2.285 1.948,4.248 3.464,5.887 1.517,1.639 3.363,2.893 5.553,3.762 2.185,0.868 4.693,1.304 7.522,1.304 5.663,0 9.949,-1.813 12.855,-5.438 2.906,-3.628 4.358,-9.09 4.358,-16.392 l -25.261,0 z m -22.723,-15.797 0,22.203 c 0,2.832 -0.47,4.744 -1.415,5.737 -0.944,0.993 -2.558,1.491 -4.841,1.491 -5.019,0 -7.526,-2.806 -7.526,-8.42 l 0,-21.011 -9.687,0 0,36.659 9.238,0 0,-5.364 c 1.143,2.086 2.659,3.661 4.544,4.731 1.889,1.068 4.325,1.601 7.302,1.601 1.741,0 3.355,-0.26 4.846,-0.781 1.491,-0.523 2.766,-1.305 3.837,-2.349 1.067,-1.042 1.911,-2.321 2.533,-3.835 0.618,-1.517 0.932,-3.268 0.932,-5.254 l 0,-25.408 -9.763,0 z m -45.223,7.303 c 2.385,0 4.358,0.906 5.921,2.719 1.567,1.812 2.347,4.284 2.347,7.414 0,7.847 -2.758,11.771 -8.268,11.771 -5.515,0 -8.272,-3.725 -8.272,-11.175 0,-3.279 0.784,-5.886 2.347,-7.824 1.567,-1.937 3.54,-2.905 5.925,-2.905 m 7.971,-2.385 c -0.694,-1.639 -1.948,-2.919 -3.761,-3.838 -1.817,-0.919 -3.914,-1.378 -6.298,-1.378 -3.029,0 -5.578,0.534 -7.637,1.603 -2.063,1.067 -3.727,2.47 -4.994,4.208 -1.266,1.739 -2.185,3.751 -2.753,6.036 -0.571,2.285 -0.859,4.621 -0.859,7.003 0,2.832 0.423,5.428 1.266,7.787 0.847,2.36 1.986,4.371 3.426,6.036 1.441,1.662 3.131,2.954 5.071,3.873 1.935,0.919 4.023,1.379 6.256,1.379 4.569,0 7.996,-1.838 10.283,-5.512 l 0,4.544 9.687,0 0,-37.626 c 0,-2.781 -0.474,-5.227 -1.415,-7.338 -0.944,-2.112 -2.236,-3.875 -3.875,-5.29 -1.639,-1.417 -3.579,-2.497 -5.811,-3.243 -2.237,-0.746 -4.621,-1.116 -7.154,-1.116 -2.533,0 -4.892,0.361 -7.078,1.08 -2.185,0.72 -4.062,1.739 -5.625,3.054 -1.567,1.317 -2.795,2.918 -3.689,4.806 -0.893,1.888 -1.342,4.023 -1.342,6.408 l 9.017,0 c 0,-2.235 0.733,-3.961 2.198,-5.178 1.462,-1.218 3.414,-1.826 5.849,-1.826 2.58,0 4.766,0.708 6.557,2.124 1.788,1.415 2.681,3.34 2.681,5.773 l 0,6.631 z m -39.34,13.039 c -0.495,-0.498 -1.219,-0.894 -2.16,-1.192 -0.944,-0.299 -2.312,-0.623 -4.099,-0.968 -2.783,-0.549 -4.694,-1.243 -5.735,-2.086 -1.047,-0.847 -1.568,-2.062 -1.568,-3.651 0,-2.735 1.568,-4.098 4.698,-4.098 1.241,0 2.393,0.21 3.465,0.633 1.067,0.422 1.981,0.993 2.752,1.714 0.771,0.72 1.394,1.564 1.864,2.532 0.47,0.968 0.707,2 0.707,3.092 l 0.076,4.024 z m 0.67,-17.957 c -0.297,0.943 -0.496,2.035 -0.597,3.279 -1.14,-1.292 -2.656,-2.324 -4.545,-3.092 -1.885,-0.769 -4.071,-1.154 -6.557,-1.154 -4.223,0 -7.314,0.929 -9.276,2.793 -1.961,1.864 -2.943,4.285 -2.943,7.264 0,2.632 0.423,4.731 1.266,6.296 0.847,1.565 2.012,2.793 3.503,3.689 1.491,0.894 3.266,1.551 5.328,1.974 2.063,0.422 4.308,0.807 6.743,1.154 2.436,0.348 4.075,0.807 4.918,1.379 0.842,0.572 1.266,1.501 1.266,2.795 0,1.191 -0.559,2.122 -1.677,2.794 -1.118,0.671 -2.618,1.006 -4.507,1.006 -2.236,0 -3.837,-0.498 -4.807,-1.491 -0.966,-0.993 -1.576,-2.309 -1.826,-3.948 l -9.013,0 c 0.047,1.887 0.36,3.624 0.932,5.214 0.568,1.591 1.491,2.957 2.757,4.098 1.267,1.144 2.914,2.025 4.952,2.645 2.037,0.621 4.519,0.932 7.454,0.932 2.88,0 5.324,-0.324 7.336,-0.968 2.012,-0.646 3.626,-1.578 4.846,-2.795 1.215,-1.218 2.096,-2.732 2.643,-4.545 0.546,-1.813 0.821,-3.863 0.821,-6.146 l 0,-23.173 -9.017,0 z m -36.506,0 0,33.902 -9.242,-33.902 -10.28,0 -9.165,33.754 0,-33.754 -9.611,0 0,49.474 15.197,0 8.941,-36.286 8.941,36.286 14.906,0 0,-49.474 -9.687,0 z"
             style="fill:#231f20;fill-opacity:1;fill-rule:nonzero;stroke:none"
             id="path22"
             inkscape:connector-curvature="0" /></g></g></g></g></svg>