<?xml version="1.0" standalone="no"?>
<!DOCTYPE svg PUBLIC "-//W3C//DTD SVG 20010904//EN"
 "http://www.w3.org/TR/2001/REC-SVG-20010904/DTD/svg10.dtd">
<svg version="1.0" xmlns="http://www.w3.org/2000/svg"
 width="400.000000pt" height="400.000000pt" viewBox="0 0 400.000000 400.000000"
 preserveAspectRatio="xMidYMid meet">
<metadata>
Created by potrace 1.11, written by Peter Selinger 2001-2013
</metadata>
<g transform="translate(0.000000,400.000000) scale(0.100000,-0.100000)"
fill="#000000" stroke="none">
<path d="M0 2000 l0 -2000 2000 0 2000 0 0 2000 0 2000 -2000 0 -2000 0 0
-2000z m3776 1724 c61 -29 82 -106 47 -171 -10 -18 -48 -57 -85 -88 -92 -75
-90 -85 17 -85 l85 0 0 -35 0 -35 -140 0 -140 0 0 30 c0 46 34 105 87 147 119
96 139 135 88 169 -35 23 -74 11 -87 -26 -9 -26 -15 -30 -49 -30 -38 0 -38 0
-33 33 4 17 13 42 21 55 30 49 125 66 189 36z m-296 -204 l0 -210 -40 0 -39 0
-3 143 -3 142 -42 3 c-38 3 -43 6 -43 27 0 18 7 25 38 32 28 6 41 16 52 40 12
27 21 33 48 33 l32 0 0 -210z m-2422 -642 c5 -18 71 -286 147 -596 77 -309
142 -557 146 -550 4 7 71 275 150 596 l143 582 253 0 253 0 0 -830 0 -830
-165 0 -165 0 -1 553 0 552 -152 -552 -151 -553 -176 0 -176 0 -144 533 c-79
292 -147 539 -151 547 -5 8 -9 -231 -9 -532 l0 -548 -160 0 -160 0 0 830 0
830 255 0 254 0 9 -32z m1861 -384 c67 -21 125 -59 170 -110 l41 -47 0 72 0
71 166 0 165 0 -4 -677 c-4 -739 -2 -716 -63 -842 -35 -72 -141 -177 -221
-219 -188 -99 -480 -99 -664 -1 -154 82 -242 211 -264 386 l-7 53 155 0 154 0
7 -41 c20 -126 133 -198 292 -186 84 6 144 30 199 78 61 54 78 104 83 249 l4
125 -28 -37 c-66 -91 -186 -133 -354 -126 -127 6 -194 28 -284 92 -118 84
-193 231 -217 426 -47 385 156 710 466 749 73 9 145 4 204 -15z"/>
<path d="M2778 2217 c-71 -20 -116 -60 -152 -136 -30 -65 -31 -69 -31 -211 0
-135 2 -149 26 -200 36 -76 75 -119 134 -146 170 -80 350 40 375 251 9 81 -5
220 -29 286 -22 58 -73 115 -128 143 -45 23 -138 29 -195 13z"/>
</g>
</svg>
