<svg viewBox="0 0 1000 1000" xmlns="http://www.w3.org/2000/svg"><path d="m170.66476 185.46646h339.66251v364.79281h-339.66251z" fill="#edeeef"/><path d="m510.327 185.466v364.793h-339.662" fill="none" stroke="#000" stroke-miterlimit="10" stroke-width="1.5"/><g fill="#ff6498"><path d="m264.10485 173.90143h152.78233v26.90506h-152.78233z"/><circle cx="340.49601" cy="174.51528" r="10.36502"/><path d="m264.10485 173.90143h152.78233v26.90506h-152.78233z"/></g><path d="m416.887 173.901v26.905h-152.782" fill="none" stroke="#000" stroke-miterlimit="10" stroke-width="1.5"/><circle cx="340.49601" cy="174.51528" fill="#ff6498" r="10.36502"/><path d="m340.49601 550.25927v289.38394" fill="none" stroke="#000" stroke-miterlimit="10" stroke-width="1.5"/><path d="m156.65919 839.64321h367.67365" fill="none" stroke="#000" stroke-miterlimit="10" stroke-width="1.5"/><path d="m808.169 824.991v-22.281l-20.567 18.853-6.855-59.128-53.987 38.561-6.855-25.707-18.852 18.852v-30.849l-23.137 27.421-20.567-61.698-25.707 63.455-37.705-47.174-28.279 64.27v-30.85l-16.281 29.993-11.141-40.276-30.849 47.988-47.131-59.128-14.568 58.271-13.711-16.281-10.283 40.36h395.901l3.427-15.509z" fill="#f4f4f4"/><path d="m399.37603 839.6433h443.96478" fill="none" stroke="#000" stroke-miterlimit="10" stroke-width="1.5"/><path d="m705.234 428.045-97.596-6.417-25.276 99.689-58.029 316.326h78.985l-9.199-16.485z" fill="#edeeef"/><path d="m717.933 820.192 4.8-180-76.8 14.4 17.831 183.051h65.637z" fill="#e2e2e2"/><path d="m694.3928 645.50613-48.46 9.08633 2.13886 21.957c40.32559-5.43984 68.09727-16.26875 68.09727-16.26875z"/><path d="m598.127 580.19246s-12.21778 3.76836-28.38477 9.916l-15.6164 85.12774c28.468 5.19375 56.18984 5.17656 80.42773 2.868l17.36016-61.41875z"/><path d="m598.127 430.00886-96.11487 199.30274s113.99493 59.99687 227.38907 27.5984v-206.38942z" fill="#ff6498"/><path d="m633.88764 231.31393v14.78559a24.835 24.835 0 0 0 18.9074 24.11723l23.52877 5.783v-57.80867l-19.564-4.80849a18.465 18.465 0 0 0 -22.8722 17.93131z" fill="#edeeef"/><path d="m633.88764 246.09952a24.835 24.835 0 0 0 18.9074 24.11723l23.52877 5.783" fill="none" stroke="#000" stroke-miterlimit="10" stroke-width="1.5"/><circle cx="657.85943" cy="242.03112" r="1.13465"/><circle cx="640.43202" cy="242.03112" r="1.13465"/><g fill="none" stroke="#000" stroke-miterlimit="10" stroke-width="1.5"><path d="m645.545 248.8v-17.486h-8.76"/><path d="m659.99696 231.31393h-8.75991"/><path d="m635.42148 228.45076h.00001"/></g><path d="m673.5288 240.27327v6.07226a5.93083 5.93083 0 0 0 5.93084-5.93083q0-.273-.02424-.53983c-.33229-3.68287-5.9066-3.29943-5.9066.3984z" fill="#edeeef"/><g fill="none" stroke-width="1.5"><path d="m673.5288 246.34553a5.93083 5.93083 0 0 0 5.93084-5.93083" stroke="#000" stroke-miterlimit="10"/><path d="m650.33437 250.84283a3.92722 3.92722 0 0 0 5.55392 0" stroke="#ff6498" stroke-linecap="round" stroke-linejoin="round"/><g stroke="#000" stroke-miterlimit="10"><path d="m645.54481 248.81371 3.83134.94168" stroke-linecap="round"/><path d="m641.56667 266.99246-.67367.3068a13.85778 13.85778 0 0 1 -19.60373-13.063c.7685-22.05707 5.95646-52.65851 29.0451-50.46844 0 0 23.45464-5.37533 32.85464 16.22467s-2.13039 32-6.8652 34.4"/><path d="m633.389 237.29856s17.71131-3.1061 19.72232-14.97277c0 0 8.77409 14.69758 21.01769 16.11524"/></g></g><path d="m598.12706 337.34249v92.66643l131.274 32.265v-103.20511a79.49343 79.49343 0 0 0 -60.52-77.19594h-.00013a57.12046 57.12046 0 0 0 -70.75394 55.46958z" fill="#edeeef"/><g fill="none" stroke="#000" stroke-miterlimit="10" stroke-width="1.5"><path d="m502.01213 629.3116s113.99493 59.99687 227.38907 27.5984"/><path d="m694.17145 293.0351s64.31995 44.9772 64.56139 111.95736c.35084 97.33333-150.8204 9.6-155.71309-6.4l-4.89269-16s-20.19422-8.31645-15.39422-11.35823 146.66836 27.09156 146.66836 27.09156"/><path d="m621.28045 293.0351s-36.94761 26.35736-52.14761 95.15736c0 0-24.8-34.35736-33.6-47.57868s-16-4.42132-16-4.42132-10.24141-15.2-17.52071-8.8 12.192 116.15923 83.25637 129.27962"/><path d="m591.31843 379.60486-148.85226-73.27907"/></g><path d="m213.57131 244.56036h173.43964v173.43964h-173.43964z" fill="#ff6498"/><g fill="#fff"><path d="m296.38583 288.04291h7.8106v86.47454h-7.8106z"/><path d="m296.38583 288.04291h7.8106v86.47454h-7.8106z" transform="matrix(0 1 -1 0 631.57131 30.98905)"/></g></svg>