<svg viewBox="0 0 1000 1000" xmlns="http://www.w3.org/2000/svg"><path d="m281.84658 431.576-67.6389-21.52379-2.14746 429.1582h78.18886l-8.40254-18.77871c37.81153-135.59324.00004-388.8557.00004-388.8557z" fill="#ff6498"/><path d="m262.32252 695.40926c0-100.51582-20.40664-182-45.5793-182a11.9238 11.9238 0 0 0 -3.05488.41641l-1.62812 325.38476h32.6207c10.73359-33.29726 17.6416-85.325 17.6416-143.80117z"/><path d="m259.54692 436.82292s16.14966 263.58908-29.46333 388.38908l9.52784 13.99844h-81.12784s-7.911-322.77043-7.911-395.13449z" fill="#ff6498"/><path d="m242.319 232.881v34.256l-42.436 10.43v-57.809l42.436-10.43z" fill="#edeeef"/><path d="m214.20771 250.80926s10.33333-3.4 13.73333 1.8c0 0 4.31188-4.83737 9.86667-.93314" fill="none" stroke="#ff6498" stroke-linecap="round" stroke-linejoin="round" stroke-width="1.5"/><circle cx="218.3471" cy="243.59821" r="1.13465"/><circle cx="235.77451" cy="243.59821" r="1.13465"/><g fill="none" stroke="#000" stroke-miterlimit="10" stroke-width="1.5"><path d="m230.662 250.367v-17.486h8.76"/><path d="m216.20956 232.88103h8.75992"/><path d="m240.78505 230.01786h-.00001"/></g><path d="m202.67773 241.84037v6.07226a5.93084 5.93084 0 0 1 -5.93084-5.93084q0-.273.02423-.53983c.33229-3.68286 5.90661-3.29942 5.90661.39841z" fill="#edeeef"/><g fill="none" stroke-width="1.5"><path d="m202.67773 247.91263a5.93084 5.93084 0 0 1 -5.93084-5.93084" stroke="#000" stroke-miterlimit="10"/><path d="m225.50651 254.67749a3.355 3.355 0 0 1 -3.355-3.355" stroke="#ff6498" stroke-linecap="round" stroke-linejoin="round"/><g stroke="#000" stroke-miterlimit="10"><path d="m212.06019 274.57381-12.17747 2.99301"/><path d="m230.66172 250.38081-3.83134.94168" stroke-linecap="round"/></g></g><path d="m281.84658 338.90959v92.66641l-131.274 32.265v-103.2051a79.49343 79.49343 0 0 1 60.52-77.19593h.00013a57.12045 57.12045 0 0 1 70.75394 55.46958z" fill="#edeeef"/><g fill="none" stroke-width="1.5"><g stroke="#ff6498" stroke-linecap="round" stroke-linejoin="round"><path d="m204.76393 243.59821s-6.4 21.01105 8.53333 31.94438c13.90364 10.17945 35.81979 4.21964 30.634-19.59117a71.08468 71.08468 0 0 1 -1.61237-15.12343v-1.41873"/><path d="m199.71231 238.8696s-14.117-25.853 7.62068-30.5111c0 0 8.83936-11.04139 21.41306-5.69322s18.612 1.59413 18.78448 6.6628.79062 13.52223-5.21164 17.83527"/><path d="m208.49726 238.86565 3.56293-14.52306s25.947.4 30.2587-6.66666"/></g><g stroke="#000" stroke-miterlimit="10"><path d="m259.54692 436.82292s16.14966 263.58908-29.46333 388.38908l9.52784 13.99844"/><path d="m177.47512 301.02135s-22.04453 87.05458 4.62214 119.58791 151.46667 13.33333 187.73333-21.86667c0 0 12.8-3.2 15.46667-9.6 0 0 12.26667 9.06667 11.73333 3.2s-4.8-24.14919-26.66666-19.54126-128.045 6.74126-128.045 6.74126l2.39059-45.86666"/><path d="m275.795 313.24661s16.039 31.0872 13.97063 64.95826"/><path d="m284.56209 451.67017s42.73113 16.97109 60.79982-36.91158"/><path d="m304.26243 377.66062s45.277-23.38535 52.23483-13.58469l6.95785 9.80065"/><path d="m727.412 201.203h-291.371v186.05l-93.689 93.689v358.268h-38.09"/><path d="m352.69176 841.21042h496.7357"/></g></g><path d="m790.67794 837.30184s8.55916-15.14313-13.16794-18.43511a71.21627 71.21627 0 0 0 -38.187 4.60878s15.14313-18.43512-8.55916-26.33588-48.063 10.53435-48.063 10.53435 23.70229-44.1126 5.26717-47.40458-28.31107 15.80152-28.31107 15.80152 1.97519-54.64695-36.21183-55.96374-34.23665 69.79008-34.23665 69.79008-16.45992-31.60306-44.11259-32.91985-13.82634 52.93759-13.82634 52.93759-5.26718-12.77541-23.70229-14.09221-17.11832 14.13464-17.11832 14.13464-23.7023-33.22815-50.03818-31.253-15.14313 34.895-15.14313 34.895c-26.99427-1.97519-32.91985 27.61088-32.91985 27.61088h417.4237z"/><path d="m448.68188 516.77144h320.06186v186.90702h-320.06186z"/><path d="m407.34968 475.43924h320.06186v186.90702h-320.06186z" fill="#edeeef"/><path d="m727.412 475.541v186.907l-320.062-.203" fill="none" stroke="#000" stroke-miterlimit="10" stroke-width="1.5"/><circle cx="567.38061" cy="568.89275" fill="#ff6498" r="58.8305"/><g fill="#d6d6d6"><circle cx="443.43174" cy="626.40796" r="12.00345"/><circle cx="691.32948" cy="511.37753" r="12.00345"/><circle cx="691.32948" cy="626.40796" r="12.00345"/><circle cx="443.43174" cy="511.37753" r="12.00345"/></g><g fill="none" stroke="#fff" stroke-miterlimit="10" stroke-width="1.5"><path d="m567.38061 568.89275a16.68766 16.68766 0 1 1 16.68766-16.68766"/><path d="m567.38061 568.89275a16.68766 16.68766 0 1 1 -16.68761 16.68766"/><path d="m567.38061 525.93477v85.91595"/></g></svg>