<svg viewBox="0 0 1000 1000" xmlns="http://www.w3.org/2000/svg"><path d="m502.24043 841.21043h359.11571" fill="none" stroke="#000" stroke-miterlimit="10" stroke-width="1.5"/><path d="m681.79829 609.29685v231.91358" fill="none" stroke="#000" stroke-miterlimit="10" stroke-width="1.5"/><path d="m543.087 757.889 289.129-34.554-144.564-144.564z" fill="#edeeef"/><path d="m543.087 757.889 289.129-34.554-144.564-144.564" fill="none" stroke="#000" stroke-miterlimit="10" stroke-width="1.5"/><path d="m578.655 668.33 208.338-24.899-104.169-104.169z" fill="#edeeef"/><path d="m578.655 668.33 208.338-24.899-104.169-104.169" fill="none" stroke="#000" stroke-miterlimit="10" stroke-width="1.5"/><path d="m611.759 597.581 151.786-18.14-75.893-75.893z" fill="#edeeef"/><path d="m611.759 597.581 151.786-18.14-75.893-75.893" fill="none" stroke="#000" stroke-miterlimit="10" stroke-width="1.5"/><path d="m639.149 541.077 97.005-11.593-48.502-48.503z" fill="#edeeef"/><path d="m639.149 541.077 97.005-11.593-48.502-48.503" fill="none" stroke="#000" stroke-miterlimit="10" stroke-width="1.5"/><path d="m506.38722 297.147s36.8463 29.66495 43.2463 38.865c0 0 22.8-35.6 33.6-30.8s22 15.2 18.4 16-9.2-1.2-9.2-1.2-1.15312 12.8-7.57656 12" fill="none" stroke="#000" stroke-miterlimit="10" stroke-width="1.5"/><path d="m428.11319 436.82293s-16.14965 263.58907 29.46333 388.38907l-9.52783 13.99844h81.12783s8.86309-335.27031 8.86309-407.63437z" fill="#ff6498"/><path d="m531.888 733.05125-95.85448-84.77265s-2.97148 1.4873-7.52383 4.09062c1.73926 27.59981 4.33125 55.40957 8.09336 81.78633 43.21075 5.48848 95.28477-1.1043 95.28477-1.1043z"/><path d="m470.24446 608.0159 3.83125-188.39062-67.31016 11.95078s-65.49629 199.23867-7.89922 248.43633c57.59707 49.19746 159.592 56.39707 159.592 56.39707l13.19941 20.399 13.19926-89.99546z" fill="#ff6498"/><path d="m584.85696 666.81297-114.6125-58.79707" fill="none" stroke="#000" stroke-miterlimit="10" stroke-width="1.5"/><path d="m406.76555 431.57606s-65.49629 199.23867-7.89922 248.43633c57.59707 49.19746 159.592 56.39707 159.592 56.39707" fill="none" stroke="#000" stroke-miterlimit="10" stroke-width="1.5"/><path d="m485.733 232.881v34.256l-42.436 10.43v-57.809l42.436-10.43z" fill="#edeeef"/><circle cx="461.76107" cy="243.59823" r="1.13465"/><circle cx="479.18848" cy="243.59823" r="1.13465"/><g fill="none" stroke="#000" stroke-miterlimit="10" stroke-width="1.5"><path d="m474.076 250.367v-17.486h8.76"/><path d="m459.62353 232.88104h8.75992"/><path d="m484.19901 230.01787h-.00001"/></g><path d="m446.09169 241.84038v6.07226a5.93084 5.93084 0 0 1 -5.93084-5.93083q0-.273.02424-.53983c.33229-3.68287 5.9066-3.29943 5.9066.3984z" fill="#edeeef"/><g fill="none" stroke-width="1.5"><path d="m446.09169 247.91264a5.93084 5.93084 0 0 1 -5.93084-5.93083" stroke="#000" stroke-miterlimit="10"/><path d="m470.24434 254.6775a6.00274 6.00274 0 0 1 -6.00274-6.00274" stroke="#ff6498" stroke-linecap="round" stroke-linejoin="round"/><g stroke="#000" stroke-miterlimit="10"><path d="m485.73285 267.13674-42.43617 10.4301"/><path d="m474.07569 250.38082-3.83135.94168" stroke-linecap="round"/><path d="m446.09169 241.84038s5.8085-5.42839 5.54183-19.29505h34.09933"/><path d="m485.73285 228.812s8.434-4.66666 3.634-22.4c0 0-37.33334-8.26666-48.4 11.2l-2-7.06666s-18.14035 31.6 4.32982 47.2"/></g></g><path d="m406.76557 338.9096v92.6664l131.274 32.265v-103.20508a79.49344 79.49344 0 0 0 -60.52-77.19594h-.00014a57.12046 57.12046 0 0 0 -70.75394 55.46958z" fill="#edeeef"/><path d="m526.16775 383.35392 18.66577-74.27526s36.8 3.73333 44.8 26.66667c0 0 17.6-12.26667 35.2-7.46667l-29.33333 79.46667-47.1234 10.405" fill="#ff6498"/><g fill="none" stroke="#000" stroke-miterlimit="10" stroke-width="1.5"><path d="m421.59205 300.50831s-45.82519 38.97035-17.55853 122.70369 177.41059-14.4656 175.46667-41.06666c-1.26667-17.33334-21.04186-3.76083-21.04186-3.76083s-.49147-10.51649-4.22481-4.37251a51.53366 51.53366 0 0 0 -4.73466 9.19446l-85.25726.53888-.23811-38.4"/><path d="m584.857 384.412s4.77656 64.4-48.02344 58.8"/><path d="m123.3135 841.21042h353.5612"/></g><path d="m435.0586 838.42842s6.09215-10.77842-9.37253-13.12155a50.68962 50.68962 0 0 0 -27.18035 3.28039s10.77841-13.12155-6.09215-18.74507-34.20975 7.498-34.20975 7.498 16.87056-31.398 3.749-33.74112-20.151 11.247-20.151 11.247 1.40588-38.896-25.77447-39.83327-24.36859 49.67443-24.36859 49.67443-11.71567-22.49408-31.398-23.43133-9.84116 37.67937-9.84116 37.67937-3.749-9.09314-16.87057-10.0304-12.18429 10.06061-12.18429 10.06061-16.87056-23.65078-35.61563-22.2449-10.77842 24.83722-10.77842 24.83722c-19.2137-1.40588-23.43134 19.65257-23.43134 19.65257h297.10943z"/><path d="m249.23989 176.19949h.0002a99.91352 99.91352 0 0 1 99.91352 99.91351v115.21091a0 0 0 0 1 0 0h-199.82724a0 0 0 0 1 0 0v-115.21091a99.91352 99.91352 0 0 1 99.91352-99.91352z" fill="#edeeef"/><g fill="none" stroke="#000" stroke-miterlimit="10" stroke-width="1.5"><path d="m149.32637 391.32391v-115.21091a99.91352 99.91352 0 0 1 99.91352-99.91353"/><path d="m249.23999 157.83522v251.85297"/><path d="m375.16648 283.7617h-251.85298"/></g></svg>