<?xml version="1.0" encoding="utf-8"?>
<!-- Generator: Adobe Illustrator 21.1.0, SVG Export Plug-In . SVG Version: 6.00 Build 0)  -->
<svg version="1.1" id="Capa_1" xmlns="http://www.w3.org/2000/svg" xmlns:xlink="http://www.w3.org/1999/xlink" x="0px" y="0px"
	 viewBox="0 0 344.1 98.6" style="enable-background:new 0 0 344.1 98.6;" xml:space="preserve">
<style type="text/css">
	.st0{fill:#F25C4A;}
</style>
<g>
	<g>
		<path class="st0" d="M148.1,27.8c25.4-3.3,50.8-6.6,76.4-8.2c24.5-1.5,49.8-1.9,74,2.3c10.9,1.9,22.2,5,31.4,11.4
			c5.2,3.7,9.7,9.1,8,15.9c-1.4,5.6-6.2,10-10.9,13.1c-18.8,12.6-43.6,16.8-65.7,19.3c-23,2.6-46.2,3.6-69.3,5.5
			c-25,2-50,4.2-75.1,4.6c-24.7,0.4-49.6-0.8-73.9-5.5c-9.3-1.8-19-3.9-27-9.3c-9.8-6.7-13-17.9-7.4-28.6
			c5.8-11,17.1-18.6,27.7-24.3c11.2-6,23.4-10.1,35.8-12.8c27.6-6,56.1-4.8,84.1-3.5c1.9,0.1,1.9-2.9,0-3
			c-27.2-1.3-54.7-2.4-81.5,2.9c-22,4.3-46.5,13.2-62.1,30.1C6.5,44.6,1.5,53.5,3.1,63.1c1.5,8.9,8.4,15.3,16.2,19.2
			c9.5,4.8,20.2,6.6,30.5,8.3c13.3,2.2,26.8,3.4,40.3,4c27.6,1.1,55.2-0.6,82.6-2.8c26.6-2.1,53.2-3.7,79.8-6.1
			c24-2.2,48.4-6.1,70-17.2c7.9-4,16.9-10.3,18.5-19.6c1.6-9.5-6.2-16.3-13.7-20.5c-11.4-6.3-24.3-9-37.1-10.6
			c-15.3-1.8-30.8-2.2-46.2-1.9c-32.2,0.6-64.2,4.8-96,9C146.2,25.1,146.1,28.1,148.1,27.8L148.1,27.8z"/>
	</g>
</g>
</svg>
