<svg viewBox="0 0 1000 1000" xmlns="http://www.w3.org/2000/svg"><path d="m290.68062 839.6433h194.45547" fill="none" stroke="#000" stroke-miterlimit="10" stroke-width="1.5"/><rect fill="#ff6498" height="41.6" rx="20.79998" width="116" x="328.40506" y="536.41201"/><path d="m423.60508 578.01201h-74.40004" fill="none" stroke="#000" stroke-miterlimit="10" stroke-width="1.5"/><path d="m386.40506 578.01201v263.19842" fill="none" stroke="#000" stroke-miterlimit="10" stroke-width="1.5"/><path d="m539.62194 455.612s130.4198 43.25112 179.61734 192.04368l21.59892 9.59952-69.59652 21.59892-112.79436-121.64212-79.70794-53.05869" fill="#e2e2e2"/><path d="m587.62194 712.412c34.70723-237.151-85.57187-246.57109-85.57187-246.57109l-55.59356 91.37109 55.06387-2.36211 15.08947 183.46459 81.6328-7.50248z" fill="#edeeef"/><path d="m587.62194 712.412c34.70723-237.151-85.57187-246.57109-85.57187-246.57109" fill="none" stroke="#000" stroke-miterlimit="10" stroke-width="1.5"/><path d="m474.245 433.57605-131.274 32.26487s-8.68239 100.70443 131.274 91.37108l75.80273-106.11738z" fill="#edeeef"/><path d="m474.24499 557.21201 75.80273-106.11738" fill="none" stroke="#000" stroke-miterlimit="10" stroke-width="1.5"/><path d="m342.971 465.84092s-8.68239 100.70443 131.274 91.37108" fill="none" stroke="#000" stroke-miterlimit="10" stroke-width="1.5"/><path d="m382.49863 234.88106v14.78558a24.835 24.835 0 0 0 18.9074 24.11724l23.52877 5.783v-57.80867l-19.564-4.8085a18.465 18.465 0 0 0 -22.87217 17.93129z" fill="#edeeef"/><path d="m382.49863 249.66664a24.835 24.835 0 0 0 18.9074 24.11724l23.52877 5.783" fill="none" stroke="#000" stroke-miterlimit="10" stroke-width="1.5"/><circle cx="406.47042" cy="245.59824" r="1.13465"/><circle cx="389.04301" cy="245.59824" r="1.13465"/><g fill="none" stroke="#000" stroke-miterlimit="10" stroke-width="1.5"><path d="m394.156 252.367v-17.486h-8.76"/><path d="m408.60796 234.88106h-8.75992"/><path d="m384.03247 232.01789h.00001"/></g><path d="m422.13979 243.8404v6.07226a5.93084 5.93084 0 0 0 5.93084-5.93084q0-.273-.02423-.53983c-.33229-3.68286-5.90661-3.29942-5.90661.39841z" fill="#edeeef"/><g fill="none" stroke-width="1.5"><path d="m422.13979 249.91266a5.93084 5.93084 0 0 0 5.93084-5.93084" stroke="#000" stroke-miterlimit="10"/><g stroke-linecap="round"><path d="m398.94536 254.41a3.92722 3.92722 0 0 0 5.55392 0" stroke="#ff6498" stroke-linejoin="round"/><path d="m394.1558 252.38084 3.83134.94168" stroke="#000" stroke-miterlimit="10"/><g stroke="#ff6498" stroke-linejoin="round"><path d="m381.27474 228.67868 33.06667 1.6s1.89178 10.83668 7.79838 12"/><path d="m381.27474 257.212-14.93333-4.84521s.8-56.48812 48.8-47.95479c0 0 30.4 1.22212 33.6 34.02212s2.70078 34.9 2.70078 34.9l-26.50739-6.25545"/></g></g></g><path d="m474.245 340.90962v92.66643l-131.274 32.265v-103.20512a79.49342 79.49342 0 0 1 60.52-77.19593h.00013a57.12045 57.12045 0 0 1 70.75387 55.46955z" fill="#ff6498"/><path d="m381.27474 294.64164s-86.81422 51.82911-118.01266 129.82521 125.87939 30.02621 125.87939 30.02621 25.54714 1.66824 35.14714-10.34771l11.64463-1.15292-1.378-5.51375-97.06667-21.33333 45.01-41.344" fill="none" stroke="#000" stroke-miterlimit="10" stroke-width="1.5"/><path d="m337.48854 416.14522 35.6 7.82421c-25.97148-9.60449 1.71348-42.09668 1.72032-42.10468z"/><path d="m392.66726 428.27256c-1.08907-.78477-4.08829-1.49766-9.55508-2.1z"/><path d="m462.98269 306.8306 39.06738 59.1814s13.03854-70.4 31.17187-76.8 26.66667-9.64516 26.66667-9.64516l2.03 6.40469-8.43 8.6701s8.18307 18.037-5.50847 22.30371c0 0 40.52609 115.107-42.04939 123.95352" fill="none" stroke="#000" stroke-miterlimit="10" stroke-width="1.5"/><path d="m322.40737 737.268c-3.9989-11.19691-15.71378 3.59178-15.71378 3.59178s14.11422-29.98449 0-36.78261c-6.96238-3.35337-10.62616.59183-12.55278 5.45025 7.22179-43.598 8.78019-127.687-20.36854-130.61567-31.83979-3.19912-20.94568 77.57856-20.94568 77.57856s-8.79757-23.19359-19.99389-12.79646 10.39654 78.37835 10.39654 78.37835c-2.39933-7.198-15.1958-12.79647-19.99447 0s13.59624 39.989 13.59624 39.989l63.18255 10.39712s26.3927-23.99343 22.39381-35.19032z"/><path d="m317.706 839.643h-90.472l-20.007-80.847h130.485z" fill="#ff6498"/><path d="m126.36907 839.6433h301.70156" fill="none" stroke="#000" stroke-miterlimit="10" stroke-width="1.5"/><path d="m207.22719 758.79641h130.48483" fill="none" stroke="#000" stroke-miterlimit="10" stroke-width="1.5"/><path d="m541.356 132.412h104.965l44.253 55.285h-104.965z"/><path d="m585.609 187.697-44.253-55.285h104.965" fill="none" stroke="#000" stroke-miterlimit="10" stroke-width="1.5"/><path d="m585.62158 187.69738h163.12732v184.62406h-163.12732z" fill="#edeeef"/><path d="m748.7489 187.69738h104.96487v184.62406h-104.96487z" fill="#e2e2e2"/><path d="m853.714 187.697v184.624h-268.092" fill="none" stroke="#000" stroke-miterlimit="10" stroke-width="1.5"/><path d="m897.966 132.412h-104.964l-44.253 55.285h104.965z" fill="#edeeef"/><path d="m853.714 187.697 44.252-55.285h-104.964" fill="none" stroke="#000" stroke-miterlimit="10" stroke-width="1.5"/><path d="m643.79668 187.69738h46.77712v54.15755h-46.77712z" fill="#ff6498"/><path d="m796.599 824.991v-22.281l-20.566 18.853-6.856-59.128-53.986 38.561-6.856-25.707-18.852 18.852v-30.849l-23.137 27.421-20.566-61.698-25.708 63.455-37.705-47.174-28.278 64.27v-30.85l-16.282 29.993-11.14-40.276-30.85 47.988-47.131-59.128-14.567 58.271-13.711-16.281-10.283 40.36h395.9l3.428-15.509z" fill="#edeeef"/><path d="m387.8064 839.6433h443.96478" fill="none" stroke="#000" stroke-miterlimit="10" stroke-width="1.5"/></svg>