<svg viewBox="0 0 1000 1000" xmlns="http://www.w3.org/2000/svg"><path d="m245.015 772.625 23.625 20.516 63.001-80.561 28.351 23.727 149.627-196.746 132.303 233.064 36.225-40.03 66.152 108.615h-554.41z" fill="#f4f4f4"/><path d="m764.16844 841.21043h-594.14949" fill="none" stroke="#000" stroke-miterlimit="10" stroke-width="1.5"/><g fill="#ff6498"><path d="m400.26656 463.841s131.25434 99.25246 113.25524 147.25006-107.9946 95.9952-107.9946 95.9952l-5.26064 27.59862-51.28018-56.39718 51.28018-89.9955s-44.22417-11.9994-51.28018-33.59832-23.64291-120.42815-23.64291-120.42815"/><circle cx="349.81454" cy="242.46358" r="13.06764"/><path d="m378.91894 436.82293s16.14966 263.58907-29.46333 388.38907l9.52783 13.99844h-81.12783s-8.86308-335.27031-8.86308-407.63437z"/></g><path d="m356.359 232.881v34.256l-42.436 10.43v-57.809l42.436-10.43z" fill="#edeeef"/><circle cx="332.38712" cy="243.59823" r="1.13465"/><circle cx="349.81454" cy="243.59823" r="1.13465"/><g fill="none" stroke="#000" stroke-miterlimit="10" stroke-width="1.5"><path d="m344.702 250.367v-17.486h8.76"/><path d="m330.24959 232.88104h8.75991"/><path d="m354.82507 230.01787h-.00001"/></g><path d="m316.71775 241.84038v6.07226a5.93084 5.93084 0 0 1 -5.93084-5.93083q0-.273.02424-.53983c.33229-3.68287 5.9066-3.29943 5.9066.3984z" fill="#edeeef"/><g fill="none" stroke-width="1.5"><path d="m316.71775 247.91264a5.93084 5.93084 0 0 1 -5.93084-5.93083" stroke="#000" stroke-miterlimit="10"/><path d="m340.8704 254.6775a6.00274 6.00274 0 0 1 -6.00274-6.00274" stroke="#ff6498" stroke-linecap="round" stroke-linejoin="round"/><g stroke="#000" stroke-miterlimit="10"><path d="m356.35891 267.13674-42.43617 10.4301"/><path d="m344.70174 250.38082-3.83134.94168" stroke-linecap="round"/><path d="m317.59291 240.329s4.66667-3.28888 3.86667-10.31111-.01158-13.50696 10.92754-14.79789a222.4862 222.4862 0 0 1 23.97179-1.15764"/><path d="m356.35891 230.01787s21.13333-38.08889-19.383-46.08889-53.69738 17.83357-51.11633 37.8c2.8 21.66017 16.5855 28 27.89275 31.6"/></g></g><path d="m268.99253 338.9096v92.6664l131.274 32.265v-103.20508a79.49342 79.49342 0 0 0 -60.52-77.19594h-.00013a57.12046 57.12046 0 0 0 -70.75394 55.46958z" fill="#edeeef"/><circle cx="308.72722" cy="242.46358" fill="#ff6498" r="13.06764"/><g fill="none" stroke="#000" stroke-miterlimit="10" stroke-width="1.5"><path d="m321.79487 242.46358a13.06765 13.06765 0 0 1 -26.13529 0"/><path d="m378.91894 436.82293s16.14966 263.58907-29.46333 388.38907"/><path d="m288.16313 296.22184s-35.10355 24.50716-41.50355 88.50716 73.6 120 158.4 27.2c0 0 24.8-18.4 25.6-33.6s-30.393 3.32891-30.393 3.32891 8.807-4.92891 0-5.72891-10.407 8.26667-10.407 8.26667l-75.93684 12.93333 11.42073-48"/></g><path d="m269.79356 444.3946v50.72852c59.934 13.99375 94.19278-48.86445 94.19278-48.86445h-.0002c-38.37656 22.58476-72.66367 16.97382-94.19258-1.86407z"/><path d="m400.26661 375.929c3.95371.359 4.35352 1.55039 3.59805 2.7543l1.20644.34648c4.38907-2.26367 10.99707-5.3207 16.40157-6.341l2.78691-25.02812h-25.05684l-3.22715 28.7582a9.80928 9.80928 0 0 1 4.29102-.48986z"/><g fill="none" stroke="#000" stroke-miterlimit="10" stroke-width="1.5"><path d="m307.45958 255.53122s-11.2 65.99776 21.33333 61.19776 80.52635-16.26667 76 32"/><path d="m354.82506 288.80239s70.76785 24.19326 80.90119 28.45992c0 0-.50308-57.86218-5.05154-61.73109s-13.0818-18.49812-4.01513-22.65018c0 0-7.46667-19.09321-2.4-18.82264s6.13333 8.27058 13.6 9.87058 86.4 115.2 45.33333 148.87236c-28.97684 23.75939-58.93333 20.20136-58.93333 20.20136"/><path d="m399.82325 432.13236 413.7297-97.34817"/><path d="m399.82325 480.80644 413.7297-97.34817"/><path d="m399.82325 529.48052 413.7297-97.34816"/><path d="m399.82325 578.1546 413.7297-97.34816"/><path d="m399.82325 626.82868 413.7297-97.34816"/></g><path d="m669.25342 234.22209h34.56502v152.4115h-34.56502z" fill="#ff6498"/><path d="m669.253 311.291 34.565-8.133v-68.936h-34.565z"/><path d="m739.27071 257.70512-70.01729 16.47465v-64.65114a23.66864 23.66864 0 0 1 18.24758-23.03946l97.15066-22.859v36.77683a58.86288 58.86288 0 0 1 -45.38095 57.29812z" fill="#ff6498"/><path d="m648.38132 488.10847-70.95624 16.69559a41.95977 41.95977 0 0 1 -51.57021-40.84437v-35.26569a50.96884 50.96884 0 0 1 39.295-49.61395l138.66859-32.62791v71.66129a71.90654 71.90654 0 0 1 -55.43714 69.99504z" fill="#ff6498"/><path d="m703.81844 265.72622v152.38719a71.90654 71.90654 0 0 1 -55.43712 69.99506l-70.95624 16.69559" fill="none" stroke="#000" stroke-miterlimit="10" stroke-width="1.5"/></svg>