<svg viewBox="0 0 1000 1000" xmlns="http://www.w3.org/2000/svg"><path d="m354.18447 180.34158h.00014a69.93531 69.93531 0 0 1 69.93531 69.93531v146.45611a0 0 0 0 1 0 0h-139.87077a0 0 0 0 1 0 0v-146.4561a69.93531 69.93531 0 0 1 69.93532-69.93532z" fill="#ff6498" transform="matrix(.70710678 -.70710678 .70710678 .70710678 -100.28842 334.9569)"/><path d="m338.54109 180.34158h139.87077a0 0 0 0 1 0 0v146.45608a69.93531 69.93531 0 0 1 -69.93531 69.93534h-.00014a69.93531 69.93531 0 0 1 -69.93531-69.93531v-146.45611a0 0 0 0 1 0 0z" fill="#ff6498" transform="matrix(-.70710678 -.70710678 .70710678 -.70710678 493.2863 781.40043)"/><path d="m480.14223 315.5914-98.90357 98.90357" fill="none" stroke="#000" stroke-miterlimit="10" stroke-width="1.5"/><path d="m381.42235 414.495 103.56008-103.56011a69.93531 69.93531 0 0 0 0-98.90347" fill="none" stroke="#000" stroke-miterlimit="10" stroke-width="1.5"/><path d="m257.67423 632.92868h87.61602v18.86469h-87.61602z"/><path d="m257.67423 758.06447h87.61602v18.86469h-87.61602z"/><path d="m319.502 841.21v-251.142l-18.02-10.404-18.02 10.404v251.142" fill="#edeeef"/><path d="m319.502 841.21v-251.142l-18.02-10.404-18.02 10.404" fill="none" stroke="#000" stroke-miterlimit="10" stroke-width="1.5"/><circle cx="301.48224" cy="642.36103" r="1.72926"/><circle cx="301.48224" cy="767.49682" r="1.72926"/><path d="m319.50237 632.92868h87.61602v18.86469h-87.61602z"/><path d="m319.50237 758.06447h87.61602v18.86469h-87.61602z"/><path d="m381.331 841.21v-251.142l-18.021-10.404-18.02 10.404v251.142" fill="#edeeef"/><path d="m381.331 841.21v-251.142l-18.021-10.404-18.02 10.404" fill="none" stroke="#000" stroke-miterlimit="10" stroke-width="1.5"/><circle cx="363.31038" cy="642.36103" r="1.72926"/><circle cx="363.31038" cy="767.49682" r="1.72926"/><path d="m381.33051 632.92868h87.61602v18.86469h-87.61602z"/><path d="m381.33051 758.06447h87.61602v18.86469h-87.61602z"/><path d="m443.159 841.21v-251.142l-18.02-10.404-18.021 10.404v251.142" fill="#edeeef"/><path d="m443.159 841.21v-251.142l-18.02-10.404-18.021 10.404" fill="none" stroke="#000" stroke-miterlimit="10" stroke-width="1.5"/><circle cx="425.13851" cy="642.36103" r="1.72926"/><circle cx="425.13851" cy="767.49682" r="1.72926"/><path d="m443.15864 632.92868h87.61602v18.86469h-87.61602z"/><path d="m443.15864 758.06447h87.61602v18.86469h-87.61602z"/><path d="m504.987 841.21v-251.142l-18.02-10.404-18.02 10.404v251.142" fill="#edeeef"/><path d="m504.987 841.21v-251.142l-18.02-10.404-18.02 10.404" fill="none" stroke="#000" stroke-miterlimit="10" stroke-width="1.5"/><circle cx="486.96665" cy="642.36103" r="1.72926"/><circle cx="486.96665" cy="767.49682" r="1.72926"/><path d="m504.98678 632.92868h87.61602v18.86469h-87.61602z"/><path d="m504.98678 758.06447h87.61602v18.86469h-87.61602z"/><path d="m566.815 841.21v-251.142l-18.02-10.404-18.02 10.404v251.142" fill="#edeeef"/><path d="m566.815 841.21v-251.142l-18.02-10.404-18.02 10.404" fill="none" stroke="#000" stroke-miterlimit="10" stroke-width="1.5"/><circle cx="548.79479" cy="642.36103" r="1.72926"/><circle cx="548.79479" cy="767.49682" r="1.72926"/><path d="m566.81492 632.92868h87.61602v18.86469h-87.61602z"/><path d="m566.81492 758.06447h87.61602v18.86469h-87.61602z"/><path d="m628.643 841.21v-251.142l-18.02-10.404-18.02 10.404v251.142" fill="#edeeef"/><path d="m628.643 841.21v-251.142l-18.02-10.404-18.02 10.404" fill="none" stroke="#000" stroke-miterlimit="10" stroke-width="1.5"/><circle cx="610.62293" cy="642.36103" r="1.72926"/><circle cx="610.62293" cy="767.49682" r="1.72926"/><path d="m628.64306 632.92868h87.61602v18.86469h-87.61602z"/><path d="m628.64306 758.06447h87.61602v18.86469h-87.61602z"/><path d="m690.471 841.21v-251.142l-18.02-10.404-18.02 10.404v251.142" fill="#edeeef"/><path d="m690.471 841.21v-251.142l-18.02-10.404-18.02 10.404" fill="none" stroke="#000" stroke-miterlimit="10" stroke-width="1.5"/><circle cx="672.45106" cy="642.36103" r="1.72926"/><circle cx="672.45106" cy="767.49682" r="1.72926"/><path d="m249.75501 841.21043h474.42329" fill="none" stroke="#000" stroke-miterlimit="10" stroke-width="1.5"/><path d="m515.597 635.393-63.2 85.577-19.852 4.247 64.652 47.776 126.804-120" fill="#f4f4f4"/><path d="m661.854 653.612s-4.3894 116.30588-3.9951 172.30588l-13.0316 13.29255h81.9037l16.037-171.19843" fill="#e2e2e2"/><path d="m726.18417 232.88106v14.78558a24.835 24.835 0 0 1 -18.90739 24.11724l-23.52878 5.783v-57.80867l19.564-4.8085a18.465 18.465 0 0 1 22.8722 17.93132z" fill="#edeeef"/><path d="m726.18417 247.66664a24.835 24.835 0 0 1 -18.90739 24.11724l-23.52878 5.783" fill="none" stroke="#000" stroke-miterlimit="10" stroke-width="1.5"/><circle cx="702.21239" cy="243.59824" r="1.13465"/><circle cx="719.6398" cy="243.59824" r="1.13465"/><g fill="none" stroke="#000" stroke-miterlimit="10" stroke-width="1.5"><path d="m714.527 250.367v-17.486h8.76"/><path d="m700.07485 232.88106h8.75992"/><path d="m724.65034 230.01789h-.00001"/></g><path d="m686.543 241.8404v6.07226a5.93084 5.93084 0 0 1 -5.93084-5.93084q0-.273.02424-.53983c.3323-3.68286 5.9066-3.29942 5.9066.39841z" fill="#edeeef"/><g fill="none" stroke-width="1.5"><path d="m686.543 247.91266a5.93084 5.93084 0 0 1 -5.93084-5.93084" stroke="#000" stroke-miterlimit="10"/><path d="m709.73745 252.41a3.92722 3.92722 0 0 1 -5.55392 0" stroke="#ff6498" stroke-linecap="round" stroke-linejoin="round"/><g stroke="#000" stroke-miterlimit="10"><path d="m714.52701 250.38084-3.83135.94168" stroke-linecap="round"/><path d="m686.543 238.86568s26.705 2.34633 34.23144-14.32033c0 0 1.15968 9.2 5.40972 10.66666"/><path d="m726.18417 243.59824s12.11672-15.31956 1.18338-30.78623-34.13333-8.26666-34.13333-8.26666-26.4 10.9237-64.53333 9.86185c-15.33566-.427-23.08071 4.1767-26.86014 9.83394a52.70191 52.70191 0 0 1 -28.3948 20.79491c-7.75618 2.41618-13.36729 7.44378-9.81173 17.5807 8.53333 24.3286 104 12.3286 121.6 2.46193"/></g></g><path d="m765.27124 338.90962v92.66643l-131.274 32.265v-103.20512a79.49343 79.49343 0 0 1 60.52-77.19593h.00013a57.12045 57.12045 0 0 1 70.75394 55.46958z" fill="#edeeef"/><path d="m765.27133 431.57607-131.27422 32.26485-128.76289 171.55234 237.53378 75.79512s31.34024-205.64824 22.50333-279.61231z" fill="#ff6498"/><g fill="none" stroke="#000" stroke-miterlimit="10" stroke-width="1.5"><path d="m505.23422 635.39326 237.53379 75.79512"/><path d="m765.27133 431.57607-131.27422 32.26485"/><path d="m665.19562 297.4924-58.28947 51.96608s-94.7386-70.7798-138.47193-64.3798v7.42151l14.4 10.17849s-2.66667 20.8 18.66667 24c0 0 56.763 116.26667 132.49631 80"/><path d="m741.306 292.40143s86.06158 72.14392 42.32825 136.67725-140.2667-26.66668-140.2667-26.66668-18.13333-6.4-15.46666-20.8l-11.73334-12.26666 6.4-9.06667 113.06667 29.86667-21.10721-25.6"/></g><path d="m651.104 409.18994c-1.34668 17.944 14.40019 38.751 39.32011 49.85313 28.01 12.47871 57.38887 8.1456 67.33438-9.43672-37.83091 12.60303-87.71978-24.57569-106.65449-40.41641z"/><path d="m497.19735 772.99326 126.80376-120" fill="none" stroke="#000" stroke-miterlimit="10" stroke-width="1.5"/><g fill="#edeeef"><path d="m253.75386 457.7906a41.99085 41.99085 0 0 0 -42.0654 41.91605l83.9815.1494a41.99087 41.99087 0 0 0 -41.9161-42.06545z"/><path d="m341.229 475.99693a23.94014 23.94014 0 0 0 -23.98265 23.89751l47.88019.08518a23.94016 23.94016 0 0 0 -23.89754-23.98269z"/><path d="m295.748 455.9457a43.91044 43.91044 0 0 0 -43.98841 43.83223l87.82071.15624a43.91046 43.91046 0 0 0 -43.8323-43.98847z"/></g><path d="m203.97256 499.69292 172.60959.30708" fill="none" stroke="#000" stroke-miterlimit="10" stroke-width="1.5"/><g fill="#edeeef"><path d="m520.60043 426.38a30.73717 30.73717 0 0 1 30.79175 30.68243l-61.47423.10937a30.7372 30.7372 0 0 1 30.68248-30.7918z"/><path d="m456.56887 439.707a17.52412 17.52412 0 0 1 17.55524 17.49291l-35.04817.06235a17.52413 17.52413 0 0 1 17.49293-17.55526z"/><path d="m489.86082 425.02956a32.14232 32.14232 0 0 1 32.1994 32.08508l-64.28453.11436a32.14235 32.14235 0 0 1 32.08513-32.19944z"/></g><path d="m557.0402 457.05241-126.34976.22478" fill="none" stroke="#000" stroke-miterlimit="10" stroke-width="1.5"/></svg>