<svg viewBox="0 0 1000 1000" xmlns="http://www.w3.org/2000/svg"><path d="m714.144 804.573h-50.047v-21.174h-51.136v-25.025l-38.079-33.688h-57.663v-97.211h-75.071v-120.312l-94.654 83.737v159.774h-50.047v70.774h-20.672v-19.762h-36.991v39.524h499.383v-14.499z" fill="#f4f4f4"/><path d="m215.84847 841.21043h547.25428" fill="none" stroke="#000" stroke-miterlimit="10" stroke-width="1.5"/><g fill="#fff"><path d="m447.93607 651.82906h6.8374v6.04877h-6.8374z"/><path d="m464.57373 651.82906h6.8374v6.04877h-6.8374z"/><path d="m481.2114 651.82906h6.8374v6.04877h-6.8374z"/><path d="m447.93607 668.13798h6.8374v6.04877h-6.8374z"/><path d="m464.57373 668.13798h6.8374v6.04877h-6.8374z"/><path d="m481.2114 668.13798h6.8374v6.04877h-6.8374z"/><path d="m447.93607 684.4469h6.8374v6.04877h-6.8374z"/><path d="m464.57373 684.4469h6.8374v6.04877h-6.8374z"/><path d="m481.2114 684.4469h6.8374v6.04877h-6.8374z"/><path d="m447.93607 700.75581h6.8374v6.04877h-6.8374z"/><path d="m464.57373 700.75581h6.8374v6.04877h-6.8374z"/><path d="m481.2114 700.75581h6.8374v6.04877h-6.8374z"/><path d="m447.93607 717.06473h6.8374v6.04877h-6.8374z"/><path d="m464.57373 717.06473h6.8374v6.04877h-6.8374z"/><path d="m481.2114 717.06473h6.8374v6.04877h-6.8374z"/><path d="m447.93607 733.37364h6.8374v6.04877h-6.8374z"/><path d="m464.57373 733.37364h6.8374v6.04877h-6.8374z"/><path d="m481.2114 733.37364h6.8374v6.04877h-6.8374z"/><path d="m447.93607 749.68256h6.8374v6.04877h-6.8374z"/><path d="m464.57373 749.68256h6.8374v6.04877h-6.8374z"/><path d="m481.2114 749.68256h6.8374v6.04877h-6.8374z"/><path d="m447.93607 765.99148h6.8374v6.04877h-6.8374z"/><path d="m464.57373 765.99148h6.8374v6.04877h-6.8374z"/><path d="m481.2114 765.99148h6.8374v6.04877h-6.8374z"/><path d="m447.93607 782.30039h6.8374v6.04877h-6.8374z"/><path d="m464.57373 782.30039h6.8374v6.04877h-6.8374z"/><path d="m481.2114 782.30039h6.8374v6.04877h-6.8374z"/></g><path d="m693.94061 463.37615s-117.53113 163.39888-3.6525 340.99l2.75578 35.27715 68.8-36.66068-38.4-144 53.6-93.40453-38.64251-124.79376" fill="#e2e2e2"/><path d="m709.838 430.045 111.724 1.964-1.021 111.634v296h-87.003l9.199-16.485z" fill="#edeeef"/><path d="m777.143 233.314v34.256l-42.436 10.43v-57.809l42.436-10.43z" fill="#edeeef"/><circle cx="753.17143" cy="244.03112" r="1.13465"/><circle cx="770.59884" cy="244.03112" r="1.13465"/><g fill="none" stroke="#000" stroke-miterlimit="10" stroke-width="1.5"><path d="m765.486 250.8v-17.486h8.76"/><path d="m751.03389 233.31393h8.75992"/><path d="m775.60938 230.45076h-.00001"/></g><path d="m737.50206 242.27327v6.07226a5.93083 5.93083 0 0 1 -5.93084-5.93083q0-.273.02424-.53983c.33228-3.68287 5.9066-3.29943 5.9066.3984z" fill="#edeeef"/><g fill="none" stroke-width="1.5"><path d="m737.50206 248.34553a5.93083 5.93083 0 0 1 -5.93084-5.93083" stroke="#000" stroke-miterlimit="10"/><path d="m761.65471 255.11039a6.00274 6.00274 0 0 1 -6.00274-6.00274" stroke="#ff6498" stroke-linecap="round" stroke-linejoin="round"/><g stroke="#000" stroke-miterlimit="10"><path d="m777.14322 267.56963-42.43617 10.4301"/><path d="m765.48605 250.81371-3.83134.94168" stroke-linecap="round"/><path d="m738.11055 240.84929s8.26667-7.73334 8.4-15.2c0 0 31.2 4.66666 35.86667 3.33333l-3.33333-6.4a69.13255 69.13255 0 0 0 10.8-5.33333s-40.13334-28-58.4 1.46666c0 0-12.22525 5.86667.42071 22.13334"/></g></g><path d="m821.56215 339.34249v92.66643l-131.274 32.265v-103.20511a79.49343 79.49343 0 0 1 60.52-77.19594h.00013a57.12046 57.12046 0 0 1 70.75394 55.46958z" fill="#ff6498"/><path d="m800.64389 400.98262c-18.09942 20.8125-57.404 18.53359-95.65064 6.76094 7.40054 14.58125 27.40337 25.03515 50.93189 25.03515 29.82339 0 54-16.78984 54-37.50078a26.52763 26.52763 0 0 0 -.63374-5.75625 101.0537 101.0537 0 0 1 -8.64751 11.46094z"/><g fill="none" stroke="#000" stroke-miterlimit="10" stroke-width="1.5"><path d="m742.73692 823.15805-32.89933-393.11317"/><path d="m813.37411 309.824s27.27389 45.15867-12.73022 91.15867-183.6-20.8-190.4-53.6-1.6-30 6-23.2 11.6 5.2 11.6 5.2 1.2-12.8 5.2-9.2 5.2 10.4 5.2 10.4l96.46316 25.6 23.94629-39.6"/><path d="m729.09784 292.76653s-35.6184 22.17489-50.23618 48.59549"/><path d="m633.17652 373.23423s-51.066 4.68172-76.666 8.94839 3.2 9.6 3.2 9.6 13.33334 19.2 36.26667 11.73333c0 0 46.75512 22.4 94.31089 10.13334"/></g><path d="m232.25147 478.72334h313.65553v227.42955h-313.65553z" fill="#d6d6d6"/><path d="m545.907 478.72334v227.42955" fill="none" stroke="#000" stroke-miterlimit="10" stroke-width="1.5"/><path d="m283.178 556.66015-2.78912-9.3739a34.95038 34.95038 0 0 0 -33.499-24.98305h-69.34138l54.703 183.84969h313.6555l-44.48036-149.49274z" fill="#edeeef"/><path d="m232.25147 706.15289h313.65553" fill="none" stroke="#000" stroke-miterlimit="10" stroke-width="1.5"/><path d="m545.907 706.153-44.48-149.493h-218.249" fill="none" stroke="#000" stroke-miterlimit="10" stroke-width="1.5"/><path d="m346.626 219.986v216.934h166.59v-157.179l-59.754-59.755z" fill="#d6d6d6"/><g fill="none" stroke="#000" stroke-miterlimit="10" stroke-width="1.5"><path d="m346.626 436.92h166.59v-157.179"/><path d="m376.26737 312.24416h69.57088"/><path d="m376.26737 326.89298h69.57088"/><path d="m376.26737 341.54181h69.57088"/><path d="m376.26737 356.19063h34.78544"/></g><path d="m287.503 179.731v216.934h166.59v-157.179l-59.755-59.755z" fill="#edeeef"/><path d="m287.503 396.665h166.59v-157.179" fill="none" stroke="#000" stroke-miterlimit="10" stroke-width="1.5"/><path d="m454.093 239.486-59.755-59.755v59.755z" fill="#ff6498"/><g fill="none" stroke="#000" stroke-miterlimit="10" stroke-width="1.5"><path d="m336.01216 271.98895h69.57088"/><path d="m336.01216 286.63777h69.57088"/><path d="m336.01216 301.28659h69.57088"/><path d="m336.01216 315.93542h34.78544"/></g></svg>