<svg viewBox="0 0 1000 1000" xmlns="http://www.w3.org/2000/svg"><path d="m187.52803 577.44011h110.9579v23.89046h-110.9579z"/><path d="m187.52803 735.91347h110.9579v23.89046h-110.9579z"/><path d="m265.828 841.21v-318.049l-22.821-13.175-22.821 13.175v318.049" fill="#edeeef"/><path d="m265.828 841.21v-318.049l-22.821-13.175-22.821 13.175" fill="none" stroke="#000" stroke-miterlimit="10" stroke-width="1.5"/><circle cx="243.00698" cy="589.38533" r="2.18996"/><circle cx="243.00698" cy="747.85869" r="2.18996"/><path d="m265.82787 577.44011h110.9579v23.89046h-110.9579z"/><path d="m265.82787 735.91347h110.9579v23.89046h-110.9579z"/><path d="m344.128 841.21v-318.049l-22.821-13.175-22.821 13.175v318.049" fill="#edeeef"/><path d="m344.128 841.21v-318.049l-22.821-13.175-22.821 13.175" fill="none" stroke="#000" stroke-miterlimit="10" stroke-width="1.5"/><circle cx="321.30682" cy="589.38533" r="2.18996"/><circle cx="321.30682" cy="747.85869" r="2.18996"/><path d="m344.12771 577.44011h110.9579v23.89046h-110.9579z"/><path d="m344.12771 735.91347h110.9579v23.89046h-110.9579z"/><path d="m422.428 841.21v-318.049l-22.821-13.175-22.821 13.175v318.049" fill="#edeeef"/><path d="m422.428 841.21v-318.049l-22.821-13.175-22.821 13.175" fill="none" stroke="#000" stroke-miterlimit="10" stroke-width="1.5"/><circle cx="399.60666" cy="589.38533" r="2.18996"/><circle cx="399.60666" cy="747.85869" r="2.18996"/><path d="m422.42755 577.44011h110.9579v23.89046h-110.9579z"/><path d="m422.42755 735.91347h110.9579v23.89046h-110.9579z"/><path d="m500.727 841.21v-318.049l-22.821-13.175-22.82 13.175v318.049" fill="#edeeef"/><path d="m500.727 841.21v-318.049l-22.821-13.175-22.82 13.175" fill="none" stroke="#000" stroke-miterlimit="10" stroke-width="1.5"/><circle cx="477.9065" cy="589.38533" r="2.18996"/><circle cx="477.9065" cy="747.85869" r="2.18996"/><path d="m500.72739 577.44011h110.9579v23.89046h-110.9579z"/><path d="m500.72739 735.91347h110.9579v23.89046h-110.9579z"/><path d="m579.027 841.21v-318.049l-22.821-13.175-22.821 13.175v318.049" fill="#edeeef"/><path d="m579.027 841.21v-318.049l-22.821-13.175-22.821 13.175" fill="none" stroke="#000" stroke-miterlimit="10" stroke-width="1.5"/><circle cx="556.20634" cy="589.38533" r="2.18996"/><circle cx="556.20634" cy="747.85869" r="2.18996"/><path d="m579.02723 577.44011h110.9579v23.89046h-110.9579z"/><path d="m579.02723 735.91347h110.9579v23.89046h-110.9579z"/><path d="m657.327 841.21v-318.049l-22.821-13.175-22.821 13.175v318.049" fill="#edeeef"/><path d="m657.327 841.21v-318.049l-22.821-13.175-22.821 13.175" fill="none" stroke="#000" stroke-miterlimit="10" stroke-width="1.5"/><circle cx="634.50618" cy="589.38533" r="2.18996"/><circle cx="634.50618" cy="747.85869" r="2.18996"/><path d="m657.32707 577.44011h110.9579v23.89046h-110.9579z"/><path d="m657.32707 735.91347h110.9579v23.89046h-110.9579z"/><path d="m735.627 841.21v-318.049l-22.821-13.175-22.821 13.175v318.049" fill="#edeeef"/><path d="m735.627 841.21v-318.049l-22.821-13.175-22.821 13.175" fill="none" stroke="#000" stroke-miterlimit="10" stroke-width="1.5"/><circle cx="712.80602" cy="589.38533" r="2.18996"/><circle cx="712.80602" cy="747.85869" r="2.18996"/><path d="m177.49903 841.21043h600.81494" fill="none" stroke="#000" stroke-miterlimit="10" stroke-width="1.5"/><path d="m875.46571 780.452-120.77695-199.19-12.81563-127.76989-85.0998-20.916s-62.54864 187.084 19.2748 262.68022 143.02051 123.0141 143.02051 123.0141v21.94z" fill="#ff6498"/><path d="m814.26883 697.05622q0-9.49454-.68085-18.65547l-58.89922-97.13875-1.88633-18.80669a39.99115 39.99115 0 0 0 -11.12988-1.59229c-38.53086 0-70.04493 56.31709-72.44395 127.4668q3.23145 3.59751 6.81953 6.92651c48.59063 44.89263 89.907 79.84786 115.45332 100.83682 14.01738-24.83054 22.76738-60.01491 22.76738-99.03693z"/><path d="m676.048 430.612 93.672-6.417 17.032 6.937 8.005 409.078h-87.004l9.199-16.485z" fill="#ff6498"/><path d="m696.30106 233.88106v14.78558a24.835 24.835 0 0 0 18.9074 24.11724l23.52877 5.783v-57.80867l-19.564-4.8085a18.465 18.465 0 0 0 -22.8722 17.93132z" fill="#edeeef"/><path d="m696.30106 248.66664a24.835 24.835 0 0 0 18.9074 24.11724l23.52877 5.783" fill="none" stroke="#000" stroke-miterlimit="10" stroke-width="1.5"/><circle cx="720.27285" cy="244.59824" r="1.13465"/><circle cx="702.84544" cy="244.59824" r="1.13465"/><g fill="none" stroke="#000" stroke-miterlimit="10" stroke-width="1.5"><path d="m707.958 251.367v-17.486h-8.76"/><path d="m722.41038 233.88106h-8.75991"/><path d="m697.8349 231.01789h.00001"/></g><path d="m735.94222 242.8404v6.07226a5.93084 5.93084 0 0 0 5.93084-5.93084q0-.273-.02424-.53983c-.33229-3.68286-5.9066-3.29942-5.9066.39841z" fill="#edeeef"/><g fill="none" stroke-width="1.5"><path d="m735.94222 248.91266a5.93084 5.93084 0 0 0 5.93084-5.93084" stroke="#000" stroke-miterlimit="10"/><g stroke-linecap="round"><path d="m712.74779 253.41a3.92722 3.92722 0 0 0 5.55392 0" stroke="#ff6498" stroke-linejoin="round"/><path d="m707.95823 251.38084 3.83134.94168" stroke="#000" stroke-miterlimit="10"/></g></g><path d="m656.77337 339.90962v92.66643l131.274 32.265v-103.20512a79.49342 79.49342 0 0 0 -60.52-77.19593h-.00013a57.12045 57.12045 0 0 0 -70.75394 55.46958z" fill="#edeeef"/><g fill="none" stroke-width="1.5"><path d="m707.753 840.21 9.199-16.485-40.904-393.113" stroke="#000" stroke-miterlimit="10"/><path d="m696.30106 244.59824s-12.09863-10.32781-7.032-23.66115c4.74843-12.49587 29.8797-20.90137 43.99338-12.08776a37.58554 37.58554 0 0 0 6.275 3.117c9.04735 3.52578 31.9507 17.33869 30.665 66.60049-1.6 61.30358-39.06667 30.63691-35.6 16.77024s5.86961-25.46666 4.1348-37.46666" stroke="#000" stroke-miterlimit="10"/><path d="m736.73576 311.23854s4.4 7.46666 15.06667 8.26666" stroke="#ff6498" stroke-linecap="round" stroke-linejoin="round"/><g stroke="#000" stroke-miterlimit="10"><path d="m736.60285 318.58959s-27.35619 6.26191-29.01494 35.90912a50.05381 50.05381 0 0 1 -5.53041 20.119c-4.52986 8.78026-9.2317 22.21191-4.42931 34.49352 8.004 20.46934 56.61516-38.71244 51.15518-81.09715"/><path d="m775.96315 319.5052s48.23928 76.09856 24.23928 124.09856-154.13333-2.13333-134.93333-48.53333c0 0-11.73334-10.13334-5.33334-12.26667s36.274 8.49408 36.274 8.49408"/><path d="m724.49146 397.12064 55.4443 16.16893"/><path d="m679.44924 294.349s-31.55891 17.29085-29.64681 86.32145c0 0-5.33333-59.73334-25.6-75.73334s-36.45846-6.81677-34.85846-4.68343 14.59179 6.28343 14.59179 6.28343-9.6 8 .53334 19.2c0 0-12.29016 139.41252 45.7798 129.46025"/></g></g><circle cx="348.82016" cy="181.12414" fill="#edeeef" r="61.9796"/><path d="m329.47347 119.14454h17.58092v123.95921h-17.58092z" fill="#edeeef"/><circle cx="329.47347" cy="181.12414" fill="#ff6498" r="61.9796"/><g fill="none" stroke="#fff" stroke-miterlimit="10" stroke-width="1.5"><path d="m329.47347 181.12414a17.58093 17.58093 0 1 1 17.58092-17.58092"/><path d="m329.47347 181.12414a17.58093 17.58093 0 1 1 -17.58093 17.58092"/><path d="m329.47347 135.86669v90.5149"/></g><path d="m450.65738 439.44741h121.60779v25.29223h-121.60779z" fill="#ff6498"/><path d="m572.265 439.447v25.293h-121.608" fill="none" stroke="#000" stroke-miterlimit="10" stroke-width="1.5"/><path d="m450.65738 407.66355h121.60779v25.29223h-121.60779z" fill="#ff6498"/><path d="m572.265 407.664v25.292h-121.608" fill="none" stroke="#000" stroke-miterlimit="10" stroke-width="1.5"/><path d="m450.65738 375.87969h121.60779v25.29223h-121.60779z" fill="#ff6498"/><path d="m572.265 375.88v25.292h-121.608" fill="none" stroke="#000" stroke-miterlimit="10" stroke-width="1.5"/><path d="m450.65738 344.09584h121.60779v25.29223h-121.60779z" fill="#ff6498"/><path d="m572.265 344.096v25.292h-121.608" fill="none" stroke="#000" stroke-miterlimit="10" stroke-width="1.5"/><path d="m450.65738 312.31198h121.60779v25.29223h-121.60779z" fill="#ff6498"/><path d="m572.265 312.312v25.292h-121.608" fill="none" stroke="#000" stroke-miterlimit="10" stroke-width="1.5"/><path d="m450.65738 280.52813h121.60779v25.29223h-121.60779z" fill="#ff6498"/><path d="m572.265 280.528v25.292h-121.608" fill="none" stroke="#000" stroke-miterlimit="10" stroke-width="1.5"/><path d="m450.65738 248.74427h121.60779v25.29223h-121.60779z" fill="#ff6498"/><path d="m572.265 248.744v25.293h-121.608" fill="none" stroke="#000" stroke-miterlimit="10" stroke-width="1.5"/><path d="m450.65738 216.96042h121.60779v25.29223h-121.60779z" fill="#ff6498"/><path d="m572.265 216.96v25.293h-121.608" fill="none" stroke="#000" stroke-miterlimit="10" stroke-width="1.5"/><path d="m450.65738 185.17656h121.60779v25.29223h-121.60779z" fill="#ff6498"/><path d="m572.265 185.177v25.292h-121.608" fill="none" stroke="#000" stroke-miterlimit="10" stroke-width="1.5"/><path d="m315.23729 439.44741h121.60779v25.29223h-121.60779z" fill="#ff6498"/><path d="m436.845 439.447v25.293h-121.608" fill="none" stroke="#000" stroke-miterlimit="10" stroke-width="1.5"/><path d="m315.23729 407.66355h121.60779v25.29223h-121.60779z" fill="#ff6498"/><path d="m436.845 407.664v25.292h-121.608" fill="none" stroke="#000" stroke-miterlimit="10" stroke-width="1.5"/><path d="m315.23729 375.87969h121.60779v25.29223h-121.60779z" fill="#ff6498"/><path d="m436.845 375.88v25.292h-121.608" fill="none" stroke="#000" stroke-miterlimit="10" stroke-width="1.5"/><path d="m315.23729 344.09584h121.60779v25.29223h-121.60779z" fill="#ff6498"/><path d="m436.845 344.096v25.292h-121.608" fill="none" stroke="#000" stroke-miterlimit="10" stroke-width="1.5"/><path d="m315.23729 312.31198h121.60779v25.29223h-121.60779z" fill="#ff6498"/><path d="m436.845 312.312v25.292h-121.608" fill="none" stroke="#000" stroke-miterlimit="10" stroke-width="1.5"/><path d="m315.23729 280.52813h121.60779v25.29223h-121.60779z" fill="#ff6498"/><path d="m436.845 280.528v25.292h-121.608" fill="none" stroke="#000" stroke-miterlimit="10" stroke-width="1.5"/></svg>