<svg viewBox="0 0 1000 1000" xmlns="http://www.w3.org/2000/svg"><path d="m203.50277 208.38367h281.74522v281.74522h-281.74522z" fill="#f4f4f4"/><path d="m485.248 383.669-45.078-45.077-62.921 62.921-110.716-110.715-63.03 63.031v136.3h281.745z" fill="#d6d6d6"/><g fill="none" stroke-miterlimit="10" stroke-width="1.5"><path d="m485.24802 383.66935-45.07763-45.07763" stroke="#fff"/><path d="m377.24873 401.51328-110.71526-110.71535" stroke="#fff"/><path d="m203.50266 490.12888h281.74536" stroke="#000"/></g><circle cx="379.43872" cy="279.24583" fill="#fff" r="35.06338"/><path d="m689.01863 432.00881h-48.45449s-52.07891 266.57812-36.07891 378.57812l-17.67851 11.35234 79.71074 17.70391 47.55781-223.17851z" fill="#e2e2e2"/><path d="m661.13445 650.77443c0 40.23594 8.56445 77.25078 22.91758 106.58242l30.02324-140.89218-13.49316-99.33008c-24.07227 31.61015-39.44766 79.73203-39.44766 133.63984z"/><path d="m661.134 430.045 110.704-6.417v120.015 296h-78.985l9.199-16.485z" fill="#edeeef"/><path d="m702.05234 823.15805-40.91786-393.11317" fill="none" stroke="#000" stroke-miterlimit="10" stroke-width="1.5"/><path d="m669.8697 233.31393v14.78559a24.835 24.835 0 0 0 18.90739 24.11723l23.52878 5.783v-57.80867l-19.564-4.80849a18.465 18.465 0 0 0 -22.8722 17.93131z" fill="#edeeef"/><path d="m669.8697 248.09952a24.835 24.835 0 0 0 18.90739 24.11723l23.52878 5.783" fill="none" stroke="#000" stroke-miterlimit="10" stroke-width="1.5"/><circle cx="693.84148" cy="244.03112" r="1.13465"/><circle cx="676.41407" cy="244.03112" r="1.13465"/><g fill="none" stroke="#000" stroke-miterlimit="10" stroke-width="1.5"><path d="m681.527 250.8v-17.486h-8.76"/><path d="m695.97902 233.31393h-8.75992"/><path d="m671.40353 230.45076h.00001"/></g><path d="m709.51086 242.27327v6.07226a5.93084 5.93084 0 0 0 5.93084-5.93083q0-.273-.02424-.53983c-.33229-3.68287-5.9066-3.29943-5.9066.3984z" fill="#edeeef"/><g fill="none" stroke-width="1.5"><path d="m709.51086 248.34553a5.93084 5.93084 0 0 0 5.93084-5.93083" stroke="#000" stroke-miterlimit="10"/><path d="m686.31642 252.84283a3.92722 3.92722 0 0 0 5.55392 0" stroke="#ff6498" stroke-linecap="round" stroke-linejoin="round"/><g stroke="#000" stroke-miterlimit="10"><path d="m681.52686 250.81371 3.83135.94168" stroke-linecap="round"/><path d="m669.8697 240.98693s15.70136-6.8 19.90136-15.7v6s7.7-1.8 10.2-5.4c0 0 1.3155 13.3 9.80775 15.1"/><path d="m712.30587 260.32026s19.86519-14.73333 10.46519-36.93333-33.4-15.8-55-13.8c-11.379 1.05361-25.69963-3.05469-36.70471-7.17868a24.69751 24.69751 0 0 0 -28.69528 8.57867s-18.8-8.6-23.2 12.2 40.524 59.50067 100.462 44.65034"/></g></g><path d="m640.56412 339.34249v92.66643l131.274 32.265v-103.20511a79.49342 79.49342 0 0 0 -60.52-77.19594h-.00014a57.12046 57.12046 0 0 0 -70.75394 55.46958z" fill="#ff6498"/><path d="m675.84716 351.26013-143.9744 59.5534a96.331 96.331 0 0 0 -38.63371 29.13053l-21.2384 26.75977 42.13256-.02183a96.331 96.331 0 0 0 36.43036-7.17465l145.34951-59.473a26.37032 26.37032 0 0 0 10.32441-41.22488 26.3703 26.3703 0 0 0 -30.39033-7.54934z" fill="#edeeef"/><path d="m472.00065 466.70383 42.13256-.02183a96.331 96.331 0 0 0 36.43036-7.17465l145.34951-59.473" fill="none" stroke="#000" stroke-miterlimit="10" stroke-width="1.5"/><path d="m746.77318 303.13336s48.112 35.05357 49.712 111.05357-155.92111-30-155.92111-30-10.47889.4946-14.07889-10.9527c0 0-6.8-.39089-6-3.3191s19.2-14.1282 50-12.5282 83.2 21.2 83.2 21.2" fill="none" stroke="#000" stroke-miterlimit="10" stroke-width="1.5"/><path d="m472.00066 466.70373 26.49473-.01367a47.062 47.062 0 0 0 -9.62051-21.24727z"/><g fill="none" stroke="#000" stroke-miterlimit="10" stroke-width="1.5"><path d="m653.4904 303.13336a380.75916 380.75916 0 0 0 -46.76664 76.71889"/><path d="m578.87357 447.92369s29.67249 19.72991 59.345 8.14957"/><path d="m551.01856 404.98693s2.50164-21.31033 16.8-18.13333 13.04334 8.47706 11.055 8.9052-10.605 0-10.605 0l-5.25421 2.17334"/><path d="m349.94414 841.21042h353.5612"/></g><path d="m661.68924 838.42842s6.09215-10.77842-9.37253-13.12155a50.68964 50.68964 0 0 0 -27.18035 3.28039s10.77841-13.12155-6.09215-18.74507-34.20975 7.498-34.20975 7.498 16.87056-31.398 3.749-33.74112-20.151 11.247-20.151 11.247 1.40588-38.896-25.77447-39.83327-24.36859 49.67443-24.36859 49.67443-11.71567-22.49408-31.398-23.43133-9.84116 37.67937-9.84116 37.67937-3.749-9.09314-16.87056-10.0304-12.1843 10.06061-12.1843 10.06061-16.87056-23.65078-35.61563-22.2449-10.77842 24.83722-10.77842 24.83722c-19.21369-1.40588-23.43133 19.65257-23.43133 19.65257h297.10942z"/><path d="m433.5565 606.94369a46.86963 46.86963 0 0 1 -12.43-18.75768 44.3343 44.3343 0 0 0 -83.37563 0 46.86983 46.86983 0 0 1 -12.43 18.75768 44.33375 44.33375 0 0 0 37.7518 76.38631 92.08929 92.08929 0 0 1 32.7321 0 44.32255 44.32255 0 0 0 37.75173-76.38628z" fill="#ff6498"/><g fill="none" stroke="#000" stroke-miterlimit="10" stroke-width="1.5"><path d="m363.07267 683.33a92.08929 92.08929 0 0 1 32.7321 0 44.35681 44.35681 0 0 0 52.238-43.61381"/><path d="m290.66786 841.42334h177.54173"/><path d="m379.43872 652.57541v188.84793"/><path d="m398.242 633.772-18.803 18.803-18.803-18.803"/></g></svg>