<svg viewBox="0 0 1000 1000" xmlns="http://www.w3.org/2000/svg"><path d="m333.429 322.702-166.57 58.886 166.57 58.887 166.571-58.887z"/><path d="m166.859 381.588 166.57 58.887 166.571-58.887" fill="none" stroke="#000" stroke-miterlimit="10" stroke-width="1.5"/><path d="m333.429 249.756-166.57 58.887 166.57 58.886 166.571-58.886z" fill="#edeeef"/><path d="m166.859 308.643 166.57 58.886 166.571-58.886" fill="none" stroke="#000" stroke-miterlimit="10" stroke-width="1.5"/><path d="m333.429 176.81-166.57 58.887 166.57 58.887 166.571-58.887z" fill="#ff6498"/><path d="m166.859 235.697 166.57 58.887 166.571-58.887" fill="none" stroke="#000" stroke-miterlimit="10" stroke-width="1.5"/><path d="m245.015 772.625 23.625 20.516 63.001-80.561 28.351 23.727 149.627-196.746 132.303 233.064 36.225-40.03 66.152 108.615h-554.41z" fill="#f4f4f4"/><path d="m764.16844 841.21043h-594.14949" fill="none" stroke="#000" stroke-miterlimit="10" stroke-width="1.5"/><path d="m608.78758 431.57608s-107.57542 184.35947-143.57358 366.75035l-13.26758 7.80447 63.44549 21.0213s140.54427-211.9853 148.94385-238.8972-5.9997-156.67894-5.9997-156.67894" fill="#ff6498"/><path d="m636.64712 514.96561s-17.26348 88.5083-12.535 143.77344c18.11133-29.131 32.81855-53.87071 38.30215-65.74493z"/><path d="m639.911 232.881v34.256l42.436 10.43v-57.809l-42.436-10.43z" fill="#edeeef"/><circle cx="663.88303" cy="243.59828" r="1.13465"/><circle cx="646.45562" cy="243.59828" r="1.13465"/><g fill="none" stroke="#000" stroke-miterlimit="10" stroke-width="1.5"><path d="m651.568 250.367v-17.486h-8.76"/><path d="m666.02057 232.88109h-8.75992"/><path d="m641.44508 230.01792h.00001"/></g><path d="m679.5524 241.84043v6.07226a5.93083 5.93083 0 0 0 5.93084-5.93083q0-.273-.02423-.53984c-.33229-3.68286-5.90661-3.29942-5.90661.39841z" fill="#edeeef"/><g fill="none" stroke-width="1.5"><g stroke="#000" stroke-miterlimit="10"><path d="m679.5524 247.91269a5.93083 5.93083 0 0 0 5.93084-5.93083"/><path d="m674.4246 275.61959 7.92281 1.94729"/><path d="m651.56841 250.38087 3.83134.94168" stroke-linecap="round"/><path d="m639.91124 242.46362s-8.51857 24.97748 2.89725 33.156 45.35991 3.41358 36.15191-30.10755"/><path d="m644.95306 250.828a1.71109 1.71109 0 0 0 1.33812 2.61747c2.45369.54785 6.16287-4.28236 9.37271-1.65278 0 0 .71912-3.71129 8.71165-1.4914s5.24887-3.05684 5.24887-3.05684"/></g><path d="m654.71023 255.12785a6.00274 6.00274 0 0 0 7.962-2.94488" stroke="#ff6498" stroke-linecap="round" stroke-linejoin="round"/><g stroke="#000" stroke-miterlimit="10"><path d="m636.857 220.812s2.878 12.37521 29.16358 5.023c0 0 1.58959 6.73992 6.11405 7.04609s4.33594 4.83062 4.33594 4.83062"/><path d="m639.91124 232.88109s-27.43824-23.66909 4.78876-24.86909 49.67522 8.793 37.81779 30.86315"/></g></g><path d="m608.78758 338.90965v92.66643l131.274 32.265v-103.20508a79.49343 79.49343 0 0 0 -60.52-77.19594h-.00013a57.12045 57.12045 0 0 0 -70.75394 55.46958z" fill="#edeeef"/><path d="m740.06157 463.841-103.20469-25.36592s-6.94453 250.88413 33.80352 387.137l-6.77734 13.59839h67.64922s13.45878-320.47919 8.52929-375.36947z" fill="#ff6498"/><g fill="none" stroke="#000" stroke-miterlimit="10" stroke-width="1.5"><path d="m636.857 438.47507s-6.9447 250.88417 33.80341 387.137"/><path d="m698.90156 290.99151s78.95884 46.62049 76.55884 124.22049-58.4 108.8-58.4 108.8"/><path d="m696.2604 481.212s11.6 42.4 31.2 51.2"/><path d="m685.483 369.345 41.977 51.2-30.147 64.174"/></g><path d="m699.97134 479.06 27.48906-58.51465-32.19023-39.26275s19.61211 58.69209 4.70117 97.7774z"/><path d="m623.2921 300.8691-56.25753 44.55546s-64.84671-82.62846-79.17417-87.01256-31.76906 4.8-31.76906 4.8v5.42626l16.58968 3.01631s-2.44436 19.30851 8.11271 28.35743c0 0 32.72784 119.62379 81.86667 120 33.6.25725 46.12718-9.06666 46.12718-9.06666" fill="none" stroke="#000" stroke-miterlimit="10" stroke-width="1.5"/><path d="m515.8006 841.21042h353.56119" fill="none" stroke="#000" stroke-miterlimit="10" stroke-width="1.5"/><path d="m827.5457 838.42842s6.09215-10.77842-9.37254-13.12155a50.68964 50.68964 0 0 0 -27.18035 3.28039s10.77842-13.12155-6.09215-18.74507-34.20975 7.498-34.20975 7.498 16.87056-31.398 3.749-33.74112-20.15095 11.247-20.15095 11.247 1.40588-38.896-25.77447-39.83327-24.3686 49.67443-24.3686 49.67443-11.71566-22.49408-31.398-23.43133-9.84116 37.67937-9.84116 37.67937-3.749-9.09314-16.87056-10.0304-12.1843 10.06061-12.1843 10.06061-16.87056-23.65078-35.61563-22.2449-10.77841 24.83722-10.77841 24.83722c-19.2137-1.40588-23.43134 19.65257-23.43134 19.65257h297.10938z"/></svg>