<svg viewBox="0 0 1000 1000" xmlns="http://www.w3.org/2000/svg"><path d="m626.596 148.43548h166.95608v301.42311h-166.95608z" fill="#edeeef"/><g fill="none" stroke="#000" stroke-miterlimit="10" stroke-width="1.5"><path d="m710.07404 146.49385v305.30638"/><path d="m626.596 449.859v-301.424h166.956"/><path d="m809.65523 248.14948h-199.16238"/><path d="m809.65523 350.1446h-199.16238"/></g><path d="m206.44792 148.43548h166.95608v301.42311h-166.95608z" fill="#edeeef"/><g fill="none" stroke="#000" stroke-miterlimit="10" stroke-width="1.5"><path d="m289.92596 146.49385v305.30638"/><path d="m206.448 449.859v-301.424h166.956"/><path d="m389.50715 248.14948h-199.16238"/><path d="m389.50715 350.1446h-199.16238"/></g><path d="m456.343 661.212v157.6l-10.4 22.398h71.309l23.091-220.798z" fill="#e2e2e2"/><path d="m472.186 431.612 110.703-6.417v120.015 296h-74.836l9.199-16.485z" fill="#edeeef"/><path d="m477.61123 234.881v14.78559a24.835 24.835 0 0 0 18.9074 24.11723l23.52877 5.783v-57.80863l-19.564-4.80849a18.465 18.465 0 0 0 -22.87217 17.9313z" fill="#edeeef"/><path d="m477.61123 249.66663a24.835 24.835 0 0 0 18.9074 24.11723l23.52877 5.783" fill="none" stroke="#000" stroke-miterlimit="10" stroke-width="1.5"/><circle cx="501.58302" cy="245.59823" r="1.13465"/><circle cx="484.15561" cy="245.59823" r="1.13465"/><g fill="none" stroke="#000" stroke-miterlimit="10" stroke-width="1.5"><path d="m489.268 252.367v-17.486h-8.76"/><path d="m503.72056 234.88104h-8.75992"/><path d="m479.14507 232.01787h.00001"/></g><path d="m517.25239 243.84038v6.07226a5.93083 5.93083 0 0 0 5.93084-5.93083q0-.273-.02423-.53983c-.33229-3.68287-5.90661-3.29943-5.90661.3984z" fill="#edeeef"/><g fill="none" stroke-width="1.5"><path d="m517.25239 249.91264a5.93083 5.93083 0 0 0 5.93084-5.93083" stroke="#000" stroke-miterlimit="10"/><path d="m494.058 254.40994a3.92722 3.92722 0 0 0 5.55392 0" stroke="#ff6498" stroke-linecap="round" stroke-linejoin="round"/><g stroke="#000" stroke-miterlimit="10"><path d="m489.2684 252.38082 3.83134.94168" stroke-linecap="round"/><path d="m478.4599 229.32759s.6527-9.7156 9.4527-9.1156 21.4-.2 22.4 7.8 4.07959 14.4 6.93979 14.4"/><path d="m477.61123 240.86567s-31.15779-56.45367 23.97177-60.45367 81.07334 69.06667 18.63479 80.26667"/></g><g stroke="#ff6498" stroke-linecap="round" stroke-linejoin="round"><path d="m521.53155 254.1918a4.27916 4.27916 0 1 1 -4.27916-4.27916"/><path d="m477.61194 257.4738a4.27921 4.27921 0 1 1 -2.746-7.56116"/></g></g><path d="m582.88941 340.9096v92.6664l-131.274 32.265v-103.20508a79.49342 79.49342 0 0 1 60.52-77.19594h.00013a57.12046 57.12046 0 0 1 70.75394 55.46958z" fill="#edeeef"/><path d="m582.89 433.576-131.275 32.265v202.972l199.509-31.42z" fill="#ff6498"/><g fill="none" stroke="#000" stroke-miterlimit="10" stroke-width="1.5"><path d="m508.053 841.21 9.199-16.485-25.353-221.153"/><path d="m564.06229 298.531s62.68042 54.14766 21.61371 129.881-173.33333-32.53333-174.93333-41.06666 12.26666-10.66667 24-4.26667c0 0-1.6-8.73328 4.8-6.2333s9.6 9.96663 9.6 9.96663l90.13333 3.73334-11.73847-49.6"/><path d="m479.145 388.055-39.602-104.293-90.667 24.65 56 125.164 50.103-10.153"/></g><path d="m469.42826 432.129s50.57265 65.5957 125.34335 36.93925l-12.12656-35.6371c-24.34765 36.22694-73.63398 21.02479-113.21679-1.30215z"/><g fill="none" stroke="#000" stroke-miterlimit="10" stroke-width="1.5"><path d="m478.4599 303.07399-23.54302 21.17565"/><path d="m370.35033 356.40858s-14.80762 55.60342 20.39238 79.20342 60.87265 6 60.87265 6"/><path d="m741.476 668.89964v-116.86915a69.19 69.19 0 0 0 -11.3969-38.04228 76.906 76.906 0 0 0 -47.35634-32.74555l-1.16351-.26179s-3.14508 47.17627 47.96255 53.46644"/><path d="m741.476 684.62506v-116.86915a69.19 69.19 0 0 1 11.3969-38.04228 76.906 76.906 0 0 1 47.35633-32.74563l1.16351-.26179s3.14508 47.17627-47.96255 53.46644"/></g><path d="m730.07906 513.98828a76.90577 76.90577 0 0 0 -47.35633-32.74579l-1.1635-.26159s6.99064 49.001 58.0983 55.29095l1.81847 132.62779v-116.86924a69.18942 69.18942 0 0 0 -11.39694-38.04212z" fill="#edeeef"/><path d="m801.39272 496.70634-1.1635.26159a76.90642 76.90642 0 0 0 -47.35633 32.74553v.00026a69.18949 69.18949 0 0 0 -11.39689 38.04212v116.86925l2.90693-136.71345c51.10761-6.29023 57.00979-51.2053 57.00979-51.2053z" fill="#edeeef"/><path d="m741.476 660.76774v-67.88208a40.18826 40.18826 0 0 0 -6.61976-22.09642 44.66992 44.66992 0 0 0 -27.50637-19.01988l-.67581-.15206s-1.82679 27.40179 27.85848 31.05537" fill="none" stroke="#000" stroke-miterlimit="10" stroke-width="1.5"/><path d="m702.1565 653.23484h78.63892v189.78164h-78.63892z" fill="#ff6498"/><path d="m211.68991 843.01648h395.49443" fill="none" stroke="#000" stroke-miterlimit="10" stroke-width="1.5"/><circle cx="263.29891" cy="551.95231" fill="#ff6498" r="112.31849"/><path d="m150.98042 551.95231a112.31849 112.31849 0 0 1 224.637 0" fill="none" stroke="#000" stroke-miterlimit="10" stroke-width="1.5"/><path d="m215.44447 623.65248h95.70888v81.23664h-95.70888z" fill="#ff6498"/><path d="m215.44447 671.33485h95.70888v33.55426h-95.70888z"/><g fill="none" stroke="#000" stroke-miterlimit="10" stroke-width="1.5"><path d="m263.29891 396.2402v26.84073"/><path d="m222.99765 401.54596 6.94689 25.92616"/><path d="m185.44285 417.10167 13.42037 23.24475"/><path d="m153.19382 441.84722 18.97926 18.97926"/><path d="m128.44827 474.09626 23.24475 13.42036"/><path d="m112.89256 511.65105 25.92615 6.94689"/><path d="m387.7791 518.59794 25.92616-6.94689"/><path d="m374.9048 487.51662 23.24475-13.42036"/><path d="m354.42474 460.82648 18.97926-18.97926"/><path d="m327.7346 440.34642 13.42036-23.24475"/><path d="m296.65328 427.47212 6.94689-25.92616"/></g></svg>