<?xml version="1.0" encoding="utf-8"?>
<!-- Generator: Adobe Illustrator 21.1.0, SVG Export Plug-In . SVG Version: 6.00 Build 0)  -->
<svg version="1.1" id="Capa_1" xmlns="http://www.w3.org/2000/svg" xmlns:xlink="http://www.w3.org/1999/xlink" x="0px" y="0px"
	 viewBox="0 0 161 38" style="enable-background:new 0 0 161 38;" xml:space="preserve">
<style type="text/css">
	.st0{fill:#FFFFFF;}
</style>
<path class="st0" d="M19.6,25.1V9.5l-4.3,15.6h-4.7L6.4,9.6v15.6H1.9V2.3h7L13.1,19l4.1-16.7h6.9v22.8H19.6z M36.4,25.1
	c-0.1-0.4-0.2-0.9-0.3-1.5c-0.5,0.6-1.2,1.1-2.1,1.4c-0.9,0.4-1.9,0.5-3,0.5c-1.9,0-3.4-0.4-4.3-1.3s-1.4-2-1.4-3.3
	c0-1.2,0.2-2.2,0.6-2.9c0.4-0.7,0.9-1.3,1.6-1.7c0.7-0.4,1.5-0.7,2.5-0.9c1-0.2,2-0.4,3.1-0.5s1.9-0.4,2.3-0.6S36,13.6,36,13
	c0-0.5-0.3-1-0.8-1.3s-1.2-0.5-2.1-0.5c-1,0-1.8,0.2-2.2,0.7c-0.4,0.5-0.7,1.1-0.8,1.8h-4.2c0-0.9,0.2-1.7,0.4-2.4
	c0.3-0.7,0.7-1.4,1.3-1.9c0.6-0.5,1.3-0.9,2.3-1.2c0.9-0.3,2.1-0.4,3.4-0.4c1.3,0,2.5,0.1,3.4,0.4c0.9,0.3,1.7,0.7,2.2,1.3
	c0.6,0.6,1,1.3,1.2,2.1s0.4,1.8,0.4,2.8v10.7H36.4z M36.1,16.8c-0.2,0.2-0.6,0.4-1,0.5c-0.4,0.1-1.1,0.3-1.9,0.4
	c-1.3,0.3-2.2,0.6-2.6,1c-0.5,0.4-0.7,1-0.7,1.7c0,1.3,0.7,1.9,2.2,1.9c0.6,0,1.1-0.1,1.6-0.3c0.5-0.2,0.9-0.5,1.3-0.8
	s0.6-0.7,0.9-1.2s0.3-0.9,0.3-1.4L36.1,16.8z M54.3,22.9c-0.3,0.8-0.9,1.3-1.7,1.8c-0.8,0.4-1.8,0.6-2.9,0.6c-1.4,0-2.6-0.2-3.5-0.7
	c-1-0.5-1.7-1.1-2.3-1.9s-1-1.7-1.3-2.8c-0.3-1.1-0.4-2.1-0.4-3.2c0-1.3,0.2-2.5,0.6-3.6c0.4-1.1,0.9-2,1.6-2.8
	c0.7-0.8,1.4-1.4,2.3-1.8c0.9-0.4,1.9-0.6,2.9-0.6c2.1,0,3.7,0.8,4.7,2.5V8.2h4.5v17.4c0,1.3-0.2,2.4-0.7,3.4c-0.4,1-1,1.8-1.8,2.4
	c-0.8,0.7-1.7,1.2-2.7,1.5c-1,0.3-2.1,0.5-3.3,0.5S48,33.2,47,32.9s-1.9-0.8-2.6-1.4c-0.7-0.6-1.3-1.3-1.7-2.2
	c-0.4-0.9-0.6-1.9-0.6-3h4.2c0,1,0.3,1.8,1,2.4c0.7,0.6,1.6,0.8,2.7,0.8c1.2,0,2.2-0.3,3-1c0.8-0.7,1.2-1.5,1.2-2.7V22.9z
	 M50.6,21.8c1.1,0,2-0.4,2.7-1.3c0.7-0.8,1.1-2,1.1-3.4c0-3.6-1.3-5.4-3.8-5.4c-2.5,0-3.8,1.7-3.8,5.2c0,1.5,0.4,2.7,1.1,3.6
	C48.6,21.3,49.5,21.8,50.6,21.8z M71.4,25.1V14.9c0-1.3-0.2-2.2-0.7-2.6s-1.2-0.7-2.2-0.7c-2.3,0-3.5,1.3-3.5,3.9v9.7h-4.5V8.2h4.3
	v2.5c0.5-1,1.2-1.7,2.1-2.2c0.9-0.5,2-0.7,3.4-0.7c0.8,0,1.5,0.1,2.2,0.4c0.7,0.2,1.3,0.6,1.8,1.1c0.5,0.5,0.9,1.1,1.2,1.8
	c0.3,0.7,0.4,1.5,0.4,2.4v11.7H71.4z M81.9,17.8c0.1,1.3,0.4,2.3,1.1,3.1s1.6,1.1,2.7,1.1c0.7,0,1.4-0.2,1.9-0.5
	c0.6-0.3,0.9-0.8,1.1-1.4h4.6c-0.5,1.7-1.4,3.1-2.8,4c-1.3,0.9-2.9,1.4-4.7,1.4c-5.6,0-8.5-3.1-8.5-9.2c0-1.3,0.2-2.5,0.5-3.5
	s0.9-2,1.6-2.7s1.6-1.3,2.6-1.7c1-0.4,2.2-0.6,3.5-0.6c2.6,0,4.6,0.8,5.9,2.5c1.3,1.7,2,4.2,2,7.6H81.9z M89,15
	c0-0.6-0.1-1.2-0.3-1.6c-0.2-0.5-0.5-0.9-0.8-1.2c-0.3-0.3-0.7-0.5-1.1-0.7c-0.4-0.1-0.8-0.2-1.3-0.2c-0.9,0-1.7,0.3-2.3,1
	c-0.7,0.7-1,1.6-1.1,2.7H89z M105.2,13.3c-0.1-0.8-0.4-1.3-0.9-1.7c-0.5-0.4-1.2-0.5-2.1-0.5c-0.9,0-1.6,0.1-2.1,0.3
	c-0.5,0.2-0.7,0.6-0.7,1.1c0,0.5,0.2,0.8,0.7,1.1c0.5,0.3,1.2,0.5,2,0.8c1.5,0.4,2.7,0.8,3.7,1c1,0.3,1.8,0.6,2.4,1
	c0.6,0.4,1,0.9,1.3,1.5c0.3,0.6,0.4,1.4,0.4,2.4c0,1.5-0.6,2.8-1.9,3.8s-3.1,1.5-5.6,1.5c-1.2,0-2.3-0.1-3.3-0.4
	c-1-0.3-1.8-0.7-2.5-1.2c-0.7-0.5-1.2-1.1-1.6-1.9c-0.4-0.7-0.6-1.5-0.6-2.4h4.6c0,0.8,0.3,1.4,0.9,1.9c0.6,0.4,1.4,0.7,2.5,0.7
	c0.8,0,1.6-0.1,2.2-0.4c0.6-0.3,0.9-0.7,0.9-1.2c0-0.6-0.2-1.1-0.7-1.3c-0.4-0.3-1.1-0.5-2-0.7c-1.6-0.4-3-0.8-4-1.2
	c-1-0.4-1.8-0.8-2.4-1.3c-0.6-0.5-0.9-1-1.1-1.6c-0.2-0.6-0.3-1.2-0.3-1.9c0-0.6,0.1-1.2,0.4-1.8s0.7-1.1,1.3-1.5
	c0.6-0.4,1.3-0.8,2.2-1c0.9-0.3,2-0.4,3.4-0.4c2.4,0,4.2,0.5,5.3,1.5s1.7,2.3,1.9,4.1H105.2z M111.3,6.2V2h4.5v4.2H111.3z
	 M111.3,25.1V8.2h4.5v16.9H111.3z M128.7,25.1v-2.4c-1.1,1.9-2.9,2.8-5.3,2.8c-0.8,0-1.6-0.1-2.3-0.4c-0.7-0.3-1.3-0.7-1.8-1.3
	s-0.9-1.2-1.2-2s-0.4-1.6-0.4-2.5V8.2h4.5v10.4c0,2.1,0.9,3.2,2.9,3.2c1.1,0,2-0.4,2.6-1.1s0.9-1.6,0.9-2.8V8.2h4.4v16.9H128.7z
	 M154.7,25.1V14.9c0-1-0.2-1.9-0.7-2.5c-0.5-0.6-1.1-1-1.9-1c-0.8,0-1.5,0.3-2,1c-0.5,0.7-0.8,1.5-0.8,2.6v10.1h-4.5V15
	c0-0.7,0-1.2-0.1-1.7c-0.1-0.4-0.2-0.8-0.5-1c-0.2-0.3-0.5-0.4-0.8-0.5c-0.3-0.1-0.8-0.2-1.2-0.2c-1.8,0-2.7,1.1-2.7,3.3v10.3h-4.5
	V8.2h4.2v2.5c0.6-1.1,1.3-1.9,2.1-2.3c0.8-0.4,1.8-0.6,2.9-0.6c0.6,0,1.1,0,1.5,0.1c0.4,0.1,0.8,0.2,1.2,0.5s0.7,0.5,1,0.8
	c0.3,0.3,0.6,0.8,1,1.2c0.5-0.9,1.1-1.6,1.8-2c0.8-0.4,1.7-0.6,2.7-0.6c0.8,0,1.6,0.1,2.3,0.4c0.7,0.3,1.3,0.7,1.8,1.2
	s0.9,1.1,1.2,1.8c0.3,0.7,0.4,1.4,0.4,2.2v11.7H154.7z M134.9,33.4V32h1.5v1.4H134.9z M142.2,31.5c0,0.3-0.1,0.6-0.3,0.8
	c-0.1,0.2-0.3,0.5-0.5,0.6c-0.2,0.2-0.5,0.3-0.7,0.4c-0.3,0.1-0.6,0.1-0.9,0.1c-0.4,0-0.7-0.1-1-0.2c-0.3-0.1-0.5-0.3-0.8-0.5
	c-0.2-0.2-0.4-0.5-0.5-0.9c-0.1-0.4-0.2-0.8-0.2-1.2c0-0.5,0.1-0.9,0.2-1.2c0.1-0.3,0.3-0.6,0.5-0.8c0.2-0.2,0.5-0.4,0.8-0.5
	c0.3-0.1,0.6-0.2,1-0.2c0.3,0,0.7,0,0.9,0.1c0.3,0.1,0.5,0.2,0.7,0.4c0.2,0.2,0.4,0.4,0.5,0.6c0.1,0.2,0.2,0.5,0.2,0.8h-1.4
	c0-0.3-0.1-0.5-0.3-0.6c-0.2-0.2-0.4-0.2-0.7-0.2c-0.1,0-0.3,0-0.4,0.1c-0.1,0-0.2,0.1-0.3,0.3c-0.1,0.1-0.2,0.3-0.2,0.5
	c-0.1,0.2-0.1,0.4-0.1,0.7c0,0.6,0.1,1,0.3,1.3c0.2,0.3,0.4,0.4,0.7,0.4s0.5-0.1,0.7-0.2c0.2-0.1,0.3-0.4,0.3-0.6H142.2z
	 M145.1,33.6c-0.4,0-0.8-0.1-1.1-0.2c-0.3-0.1-0.6-0.3-0.8-0.6c-0.2-0.2-0.4-0.5-0.5-0.9c-0.1-0.3-0.2-0.7-0.2-1.1
	c0-0.4,0.1-0.8,0.2-1.1c0.1-0.3,0.3-0.6,0.5-0.9c0.2-0.2,0.5-0.4,0.8-0.6c0.3-0.1,0.7-0.2,1.1-0.2c0.4,0,0.8,0.1,1.1,0.2
	s0.6,0.3,0.8,0.6c0.2,0.2,0.4,0.5,0.5,0.9c0.1,0.3,0.2,0.7,0.2,1.1c0,0.4-0.1,0.8-0.2,1.1c-0.1,0.3-0.3,0.6-0.5,0.9
	s-0.5,0.4-0.8,0.6C145.9,33.5,145.5,33.6,145.1,33.6z M145.1,32.4c0.8,0,1.3-0.5,1.3-1.6c0-1.1-0.4-1.6-1.3-1.6
	c-0.8,0-1.3,0.5-1.3,1.6C143.9,31.9,144.3,32.4,145.1,32.4z M150.8,33.6c-0.4,0-0.8-0.1-1.1-0.2c-0.3-0.1-0.6-0.3-0.8-0.6
	c-0.2-0.2-0.4-0.5-0.5-0.9c-0.1-0.3-0.2-0.7-0.2-1.1c0-0.4,0.1-0.8,0.2-1.1c0.1-0.3,0.3-0.6,0.5-0.9c0.2-0.2,0.5-0.4,0.8-0.6
	c0.3-0.1,0.7-0.2,1.1-0.2c0.4,0,0.8,0.1,1.1,0.2s0.6,0.3,0.8,0.6c0.2,0.2,0.4,0.5,0.5,0.9c0.1,0.3,0.2,0.7,0.2,1.1
	c0,0.4-0.1,0.8-0.2,1.1c-0.1,0.3-0.3,0.6-0.5,0.9s-0.5,0.4-0.8,0.6C151.6,33.5,151.2,33.6,150.8,33.6z M150.8,32.4
	c0.8,0,1.3-0.5,1.3-1.6c0-1.1-0.4-1.6-1.3-1.6c-0.8,0-1.3,0.5-1.3,1.6C149.6,31.9,150,32.4,150.8,32.4z M154,35.9v-7.7h1.3l0,0.6
	c0.3-0.5,0.8-0.8,1.5-0.8c0.3,0,0.6,0.1,0.9,0.2c0.3,0.1,0.5,0.3,0.7,0.6c0.2,0.2,0.4,0.5,0.5,0.9c0.1,0.3,0.2,0.7,0.2,1.2
	c0,0.4,0,0.8-0.1,1.1c-0.1,0.3-0.2,0.6-0.4,0.9c-0.2,0.2-0.4,0.4-0.7,0.6c-0.3,0.1-0.6,0.2-0.9,0.2c-0.6,0-1.2-0.3-1.6-0.8v3.2H154z
	 M156.4,32.4c0.8,0,1.2-0.5,1.2-1.6c0-0.5-0.1-0.8-0.3-1.1c-0.2-0.3-0.5-0.4-0.9-0.4c-0.3,0-0.6,0.1-0.8,0.4
	c-0.2,0.3-0.3,0.6-0.3,1.1C155.3,31.8,155.7,32.4,156.4,32.4z"/>
</svg>
