<?xml version="1.0" encoding="utf-8"?>
<!-- Generator: Adobe Illustrator 21.1.0, SVG Export Plug-In . SVG Version: 6.00 Build 0)  -->
<svg version="1.1" id="Capa_1" xmlns="http://www.w3.org/2000/svg" xmlns:xlink="http://www.w3.org/1999/xlink" x="0px" y="0px"
	 viewBox="0 0 522 568.5" style="enable-background:new 0 0 522 568.5;" xml:space="preserve">
<style type="text/css">
	.st0{fill:none;stroke:#FFFFFF;stroke-width:0.4;stroke-miterlimit:10;}
</style>
<g>
	<g>
		<polygon class="st0" points="165.5,214.7 165.5,75.8 127.7,214.7 85.5,214.7 47.9,76.4 47.9,214.7 8.5,214.7 8.5,11.9 70.8,11.9 
			107.5,160.7 144.2,11.9 205.3,11.9 205.3,214.7 		"/>
	</g>
	<g>
		<path class="st0" d="M315.2,214.7c-1.2-3.9-2-8.3-2.4-13.4c-4.7,5.3-10.9,9.5-18.6,12.7c-7.7,3.2-16.7,4.7-26.9,4.7
			c-17.3,0-30-3.8-38-11.5c-8-7.6-12.1-17.6-12.1-29.8c0-10.8,1.7-19.4,5.2-25.8c3.5-6.4,8.2-11.5,14.4-15.1
			c6.1-3.7,13.4-6.4,21.8-8.1c8.5-1.7,17.7-3.3,27.6-4.7s16.7-3.3,20.2-5.7s5.2-6.2,5.2-11.5c0-4.9-2.3-8.7-6.9-11.5
			S293.9,91,286.2,91c-9.2,0-15.7,2-19.7,6.1c-4,4.1-6.5,9.5-7.5,16.2H222c0.2-7.7,1.5-14.9,3.8-21.4c2.3-6.5,6.1-12.1,11.3-16.8
			c5.2-4.7,11.9-8.3,20.3-10.8s18.5-3.8,30.6-3.8c11.8,0,21.8,1.3,30.1,4c8.2,2.6,14.9,6.5,19.9,11.5c5,5,8.6,11.2,10.8,18.6
			c2.2,7.4,3.4,15.8,3.4,25.2v95H315.2z"/>
		<path class="st0" d="M312.5,141.1c-2,2-5,3.7-8.9,4.9c-3.9,1.2-9.5,2.6-16.8,4c-11.4,2.2-19.2,5.1-23.5,8.6
			c-4.3,3.5-6.4,8.5-6.4,15c0,11.2,6.4,16.8,19.3,16.8c5.1,0,9.8-0.9,14.2-2.6c4.4-1.7,8.1-4.1,11.3-7c3.2-3,5.7-6.4,7.6-10.4
			s2.9-8.2,2.9-12.7L312.5,141.1z"/>
	</g>
	<g>
		<path class="st0" d="M473.7,194.6c-2.8,6.7-8,12-15.4,15.7c-7.4,3.8-16,5.7-25.8,5.7c-12.4,0-22.9-2.2-31.3-6.6
			c-8.5-4.4-15.3-10.1-20.5-17.3c-5.2-7.1-9-15.4-11.3-24.7c-2.3-9.4-3.5-18.9-3.5-28.7c0-11.6,1.7-22.3,5.2-31.9
			c3.5-9.7,8.1-17.9,14-24.7c5.9-6.8,12.8-12.1,20.8-15.9c7.9-3.8,16.5-5.7,25.6-5.7c18.7,0,32.8,7.5,42.2,22.6V64.5h39.7v154.2
			c0,11.4-1.9,21.4-5.8,30.1c-3.9,8.7-9.2,15.9-15.9,21.7c-6.7,5.8-14.7,10.2-23.8,13.3c-9.2,3.1-18.9,4.6-29.3,4.6
			c-10.4,0-20.1-1.5-29-4.4s-16.7-7.1-23.1-12.5c-6.4-5.4-11.5-12-15.1-19.7c-3.7-7.7-5.5-16.5-5.5-26.3h37c0,9.2,3,16.2,9,21.2
			c6,5,14,7.5,24,7.5c10.6,0,19.5-2.9,26.9-8.7c7.3-5.8,11-13.7,11-23.7V194.6z"/>
		<path class="st0" d="M441,184.8c9.8,0,17.9-3.7,24.3-11.1c6.4-7.4,9.6-17.6,9.6-30.4c0-32.2-11.3-48.3-33.9-48.3
			c-22.6,0-33.9,15.3-33.9,45.8c0,13.4,3.2,24.1,9.6,32.1C423.2,180.8,431.3,184.8,441,184.8z"/>
	</g>
	<g>
		<path class="st0" d="M104.8,383.7v-91c0-11.6-1.9-19.4-5.8-23.5c-3.9-4.1-10.5-6.1-19.8-6.1c-20.6,0-30.9,11.5-30.9,34.5v86.1H8.5
			V233.4h37.9v22c4.7-8.6,10.9-15,18.6-19.4c7.7-4.4,17.7-6.6,29.9-6.6c7.1,0,13.8,1.1,19.9,3.2c6.1,2.1,11.3,5.3,15.7,9.6
			c4.4,4.3,7.8,9.5,10.4,15.7c2.5,6.2,3.8,13.4,3.8,21.5v104.2H104.8z"/>
	</g>
	<g>
		<path class="st0" d="M195.1,318.9c0.6,11.4,3.9,20.5,9.9,27.2c6,6.7,13.9,10.1,23.7,10.1c6.5,0,12.3-1.5,17.2-4.4
			c5-2.9,8.2-7.1,9.6-12.4h40.9c-4.7,15.5-12.8,27.4-24.4,35.7c-11.6,8.4-25.5,12.5-41.5,12.5c-50.1,0-75.1-27.3-75.1-81.9
			c0-11.6,1.6-22.1,4.9-31.5c3.3-9.4,8-17.4,14.2-24.1c6.2-6.7,13.8-11.9,22.8-15.4c9-3.6,19.2-5.3,30.8-5.3
			c23.2,0,40.8,7.4,52.7,22.3c11.9,14.9,17.9,37.3,17.9,67.2H195.1z"/>
		<path class="st0" d="M257.7,293.9c-0.2-5.5-1.2-10.3-2.9-14.5c-1.7-4.2-4-7.6-6.9-10.4c-2.9-2.8-6.1-4.8-9.8-6.1
			c-3.7-1.3-7.4-2-11.3-2c-7.9,0-14.8,2.9-20.6,8.7c-5.8,5.8-9.1,13.9-9.9,24.3H257.7z"/>
	</g>
	<g>
		<path class="st0" d="M402.2,278.9c-1-6.9-3.6-12-7.8-15.1c-4.2-3.2-10.5-4.7-19.1-4.7c-8.1,0-14.3,1-18.5,2.9
			c-4.2,1.9-6.3,5.2-6.3,9.9c0,4.1,2.1,7.3,6.3,9.8c4.2,2.4,10.2,4.8,18.2,7c13,3.7,24,6.8,33,9.3c9,2.6,16.1,5.6,21.5,9
			c5.4,3.5,9.3,7.8,11.6,13c2.3,5.2,3.5,12.2,3.5,20.9c0,13.4-5.6,24.6-16.8,33.5c-11.2,8.9-27.8,13.3-49.8,13.3
			c-10.8,0-20.6-1.2-29.3-3.7c-8.8-2.4-16.3-6-22.5-10.5c-6.2-4.6-11-10.1-14.4-16.5c-3.4-6.4-5.1-13.6-5.3-21.5h40.9
			c0,7.1,2.8,12.6,8.4,16.5c5.6,3.9,12.9,5.8,21.8,5.8c7.5,0,14-1.2,19.4-3.5c5.4-2.3,8.1-6,8.1-10.8c0-5.5-2-9.5-6-11.9
			c-4-2.4-10-4.6-18.2-6.4c-14.7-3.3-26.5-6.7-35.4-10.2c-9-3.6-15.9-7.5-20.9-11.8c-5-4.3-8.4-9-10.1-14.1
			c-1.7-5.1-2.6-10.8-2.6-17.1c0-5.7,1.2-11.1,3.5-16.2c2.3-5.1,6.1-9.6,11.1-13.4c5.1-3.9,11.7-7,19.9-9.3
			c8.1-2.3,18.1-3.5,29.9-3.5c21.6,0,37.4,4.4,47.3,13.1c10,8.8,15.5,20.9,16.5,36.3H402.2z"/>
	</g>
	<g>
		<rect x="456.2" y="178.4" class="st0" width="39.7" height="37"/>
		<rect x="456.2" y="233.4" class="st0" width="39.7" height="150.3"/>
	</g>
	<g>
		<path class="st0" d="M106.3,552.6v-21.1c-10.2,16.7-25.7,25-46.7,25c-7.5,0-14.4-1.3-20.6-4c-6.2-2.6-11.5-6.4-16-11.3
			c-4.5-4.9-8-10.7-10.5-17.4s-3.8-14.3-3.8-22.6v-99h39.7v92.9c0,18.7,8.4,28.1,25.4,28.1c10.2,0,17.9-3.2,23.1-9.6
			c5.2-6.4,7.8-14.6,7.8-24.6v-86.7h39.4v150.3H106.3z"/>
	</g>
	<g>
		<path class="st0" d="M335.3,552.6v-91c0-9.2-2.1-16.6-6.4-22.3c-4.3-5.7-10-8.6-17.1-8.6c-7.3,0-13.4,3.1-18.2,9.2
			c-4.8,6.1-7.2,13.7-7.2,22.9v89.8h-39.7v-90.4c0-6.1-0.4-11.1-1.2-15c-0.8-3.9-2.2-6.9-4.1-9.2c-1.9-2.2-4.4-3.8-7.5-4.7
			c-3-0.9-6.7-1.4-11-1.4c-16.1,0-24.1,9.8-24.1,29.3v91.3H159V402.3h37.3v22c5.1-10,11.2-16.8,18.3-20.5c7.1-3.7,15.7-5.5,25.7-5.5
			c5.1,0,9.6,0.4,13.6,1.2c4,0.8,7.5,2.2,10.7,4.1c3.2,1.9,6.2,4.4,9,7.5c2.8,3,5.7,6.7,8.6,11c4.1-8.3,9.5-14.4,16.2-18.2
			s14.9-5.7,24.4-5.7c7.5,0,14.5,1.3,20.8,3.8c6.3,2.5,11.7,6.1,16.2,10.7s8,9.9,10.5,16c2.5,6.1,3.8,12.6,3.8,19.6v104.2H335.3z"/>
	</g>
</g>
</svg>
