<svg viewBox="0 0 1000 1000" xmlns="http://www.w3.org/2000/svg"><path d="m532.441 826.991v-22.281l-20.566 18.853-6.855-59.128-53.987 38.561-6.855-25.707-18.853 18.852v-30.849l-23.137 27.421-20.566-61.698-25.708 63.455-37.705-47.174-28.278 64.27v-30.85l-16.282 29.993-11.14-40.276-30.849 47.988-47.131-59.128-14.568 58.271-13.711-16.281-10.283 40.36h395.9l3.428-15.509z" fill="#f4f4f4"/><path d="m123.64875 841.6433h443.96478" fill="none" stroke="#000" stroke-miterlimit="10" stroke-width="1.5"/><path d="m597.006 535.264-139.672 56.742v-362.276l139.672-56.742z" fill="#edeeef"/><path d="m736.679 592.006-139.673-56.742v-362.276l139.673 56.742z" fill="#e2e2e2"/><path d="m597.0062 535.26402-139.67253 56.74196" fill="none" stroke="#000" stroke-miterlimit="10" stroke-width="1.5"/><path d="m736.67872 592.00598-139.67252-56.74196" fill="none" stroke="#000" stroke-miterlimit="10" stroke-width="1.5"/><path d="m876.351 535.264-139.672 56.742v-362.276l139.672-56.742z" fill="#ff6498"/><path d="m446.40116 822.51234s-15.33984-308.37222-30.42461-391.93628l-99.52382 13.37294 51.87027 394.26143h87.91641z" fill="#e2e2e2"/><path d="m416.30976 638.07869c-10.9125-18.90127-42.932-21.39663-75.27969-7.32021l12.275 93.30283a125.85384 125.85384 0 0 0 19.58672-9.18467c36.35039-20.98681 55.78906-55.37046 43.41797-76.79795z"/><path d="m284.70254 462.841s-11.18411 116.70118 57.09726 147.89962l-140.50819 79.196 29.9985 73.19634 10.79946-25.19874s176.39118-27.59862 185.9907-97.19514-55.50147-199.4966-55.50147-199.4966" fill="#edeeef"/><path d="m242.08957 737.93426s176.39118-27.59862 185.9907-97.19514-55.50147-199.4966-55.50147-199.4966" fill="none" stroke="#000" stroke-miterlimit="10" stroke-width="1.5"/><path d="m330.143 231.881v34.256l42.436 10.43v-57.809l-42.436-10.43z" fill="#edeeef"/><circle cx="354.11442" cy="242.59828" r="1.13465"/><circle cx="336.68701" cy="242.59828" r="1.13465"/><g fill="none" stroke="#000" stroke-miterlimit="10" stroke-width="1.5"><path d="m341.8 249.367v-17.486h-8.76"/><path d="m356.25196 231.88109h-8.75992"/><path d="m331.67647 229.01792h.00001"/></g><path d="m369.78379 240.84043v6.07226a5.93083 5.93083 0 0 0 5.93084-5.93083q0-.273-.02424-.53984c-.33228-3.68286-5.9066-3.29942-5.9066.39841z" fill="#edeeef"/><g fill="none" stroke-width="1.5"><path d="m369.78379 246.91269a5.93083 5.93083 0 0 0 5.93084-5.93083" stroke="#000" stroke-miterlimit="10"/><path d="m345.63114 253.67755a6.00274 6.00274 0 0 0 6.00274-6.00274" stroke="#ff6498" stroke-linecap="round" stroke-linejoin="round"/><g stroke="#000" stroke-miterlimit="10"><path d="m330.14263 266.13679 42.43617 10.43009"/><path d="m341.7998 249.38087 3.83134.94168" stroke-linecap="round"/><path d="m330.143 231.881-3.051-29.869 50.8 5.2-5.143 30.654"/><path d="m333.03988 215.14538s13.05191 11.86666 30.51858 9.46666c0 0 1.11734 11.6 6.22533 14.26667"/></g></g><path d="m415.97657 337.90965v92.66643l-131.274 32.265v-103.20508a79.49342 79.49342 0 0 1 60.52-77.19594h.00013a57.12045 57.12045 0 0 1 70.75394 55.46958z" fill="#ff6498"/><path d="m310.07929 301.40518s-55.5875 49.60682-54.7875 116.80682c.67 56.28186 133.02607 9.87106 176.01678-6.69557a32.06839 32.06839 0 0 0 18.36863-18.34986l4.78053-12.34424 13.63406-5.54366v-7.46667l-132.52379 17.06671 16.304-38.4" fill="none" stroke="#000" stroke-miterlimit="10" stroke-width="1.5"/><path d="m289.35663 445.05106c10.29883 4.92729 24.26641 7.961 39.6625 7.961 29.652 0 54.04414-11.23188 57.01992-25.63271-31.73125 9.98455-69.82105 19.39012-96.68242 17.67171z"/><path d="m465.18572 364.16134c10.76886-22.41475 28.47129-57.22718 37.0394-62.75616a39.35687 39.35687 0 0 1 25.6-6.12647v6.12647l-9.6 5.60686s6.4 17.6-6.4 25.06667c0 0-2.8971 163.92808-95.84855 98.49737" fill="none" stroke="#000" stroke-miterlimit="10" stroke-width="1.5"/><path d="m408.22411 309.12647 39.49339 60.99142" fill="none" stroke="#000" stroke-miterlimit="10" stroke-width="1.5"/><circle cx="597.0062" cy="569.75964" fill="#ff6498" r="60.32677"/><g fill="none" stroke-miterlimit="10" stroke-width="1.5"><path d="m657.333 569.75964a60.32677 60.32677 0 0 1 -60.32677 60.32677" stroke="#000"/><path d="m551.00359 569.75964a46.0026 46.0026 0 0 1 46.00261-46.00264" stroke="#fff"/><g stroke="#000"><path d="m597.0062 630.08641v211.55689"/><path d="m529.38542 841.6433h135.24156"/></g></g></svg>