<svg viewBox="0 0 1000 1000" xmlns="http://www.w3.org/2000/svg"><circle cx="748.94127" cy="104.69665" fill="#edeeef" r="22.97406"/><circle cx="749.60089" cy="362.9215" r="43"/><path d="m749.60077 105.19546h.00022a111.76106 111.76106 0 0 1 111.76107 111.76107v124.26606a0 0 0 0 1 0 0h-223.52235a0 0 0 0 1 0 0v-124.26606a111.76106 111.76106 0 0 1 111.76106-111.76107z" fill="#d7e8f7"/><path d="m883.55828 341.22256a22.19613 22.19613 0 0 1 -22.19613-22.19613v-102.06986a111.76111 111.76111 0 0 0 -111.76115-111.76111h-.00025a111.7611 111.7611 0 0 0 -111.7611 111.76111v102.06986a22.19614 22.19614 0 0 1 -22.19614 22.19613h-.00015a13.31324 13.31324 0 0 0 -13.31324 13.31323v1.57459a13.31336 13.31336 0 0 0 13.31336 13.31335h267.91493a13.31323 13.31323 0 0 0 13.31323-13.31323v-1.57459a13.31335 13.31335 0 0 0 -13.31336-13.31335z" fill="#e2e2e2"/><path d="m883.55825 341.22256a22.19613 22.19613 0 0 1 -22.19613-22.19613v-102.06986" fill="none" stroke="#000" stroke-miterlimit="10" stroke-width="1.5"/><rect fill="#ff6498" height="28.20112" rx="13.31327" width="294.54159" x="602.33009" y="341.22259"/><path d="m883.55841 369.42371h-267.91505" fill="none" stroke="#000" stroke-miterlimit="10" stroke-width="1.5"/><circle cx="249.13594" cy="327.15897" fill="#ff6498" r="12.37359"/><path d="m249.13596 135.43903v156.35008" fill="none" stroke="#000" stroke-miterlimit="10" stroke-width="1.5"/><path d="m249.136 257.495-66.508 66.508h133.016z" fill="#edeeef"/><path d="m182.628 324.003h133.016l-66.508-66.508" fill="none" stroke="#000" stroke-miterlimit="10" stroke-width="1.5"/><path d="m649.51121 808.6433c1.6-158.4-65.35743-346.34492-65.35743-346.34492l-48.24257-27.25508-11.2 179.2 59.44257 226.4 85.35743-24z" fill="#ff6498"/><path d="m590.8155 652.64409c0-54.43516-25.09492-101.16836-60.91972-121.3543l-5.18457 82.95351 35.11093 133.72793c19.09922-24.02734 30.99336-57.85234 30.99336-95.32714z"/><path d="m562.80616 435.28033s16.14965 263.58907-29.46333 388.38907l9.52783 13.99843h-81.12783s-8.86309-335.27031-8.86309-407.63437z" fill="#ff6498"/><path d="m535.866 231.338v34.256l-42.436 10.43v-57.808l42.436-10.431z" fill="#edeeef"/><circle cx="511.89438" cy="242.05563" r="1.13465"/><circle cx="529.32179" cy="242.05563" r="1.13465"/><g fill="none" stroke="#000" stroke-miterlimit="10" stroke-width="1.5"><path d="m524.209 248.824v-17.486h8.76"/><path d="m509.75684 231.33844h8.75992"/><path d="m534.33233 228.47528h-.00001"/></g><path d="m496.225 240.29778v6.07227a5.93084 5.93084 0 0 1 -5.93083-5.93084q0-.273.02423-.53983c.33229-3.68287 5.9066-3.29938 5.9066.3984z" fill="#edeeef"/><g fill="none" stroke-width="1.5"><path d="m496.225 246.37005a5.93084 5.93084 0 0 1 -5.93083-5.93084" stroke="#000" stroke-miterlimit="10"/><path d="m520.37765 253.1349a6.00273 6.00273 0 0 1 -6.00273-6.00274" stroke="#ff6498" stroke-linecap="round" stroke-linejoin="round"/><g stroke="#000" stroke-miterlimit="10"><path d="m535.86616 265.59414-42.43617 10.4301"/><path d="m524.209 248.83822-3.83135.94168" stroke-linecap="round"/></g></g><path d="m452.87974 337.367v92.66643l131.274 32.26494v-103.20505a79.49343 79.49343 0 0 0 -60.52-77.19594h-.00013a57.12046 57.12046 0 0 0 -70.75394 55.46958z" fill="#edeeef"/><g fill="none" stroke="#000" stroke-miterlimit="10" stroke-width="1.5"><path d="m562.80616 435.28033s16.14965 263.58907-29.46333 388.38907"/><path d="m496.225 240.29778s12.75287-4.72114 10.35287-19.25448h30.4"/><path d="m490.80574 238.48579s-13.5612-33.97579 17.77213-32.77579 33.33334 1.73333 34.4 7.2-7.11171 11.46667-7.11171 11.46667"/><path d="m490.29417 283.73323s-82.383 28.11007-95.183 106.51007 86.4 140 86.4 140l27.71948-39.2-44.51948-80.8 44.51948-48.8"/><path d="m481.51121 530.2433 37.33644-52.8"/><path d="m556.79006 299.079s56.72115 29.56435 64.72115 85.56435l19.2-72.8s-8-16 0-17.6c0 0-.8-33.23813 20.8-18.21906s38.39459 217.42077-71.20271 204.61989"/></g><path d="m149.34 615.951v223.692h42.554v-22.758h228.37v22.758h42.554v-223.692z" fill="#edeeef"/><g fill="none" stroke="#000" stroke-miterlimit="10" stroke-width="1.5"><path d="m103.12832 839.64326h405.90119"/><path d="m462.81784 839.6433v-223.69189"/><path d="m191.894 816.885h228.37v22.758"/></g><path d="m191.89406 655.27484h228.36972v51.64806h-228.36972z" fill="#d6d6d6"/><path d="m420.264 655.275v51.648h-228.37" fill="none" stroke="#000" stroke-miterlimit="10" stroke-width="1.5"/><path d="m301.23691 676.25687h9.68401v9.68401h-9.68401z"/><path d="m191.89406 719.29692h228.36972v51.64806h-228.36972z" fill="#d6d6d6"/><path d="m420.264 719.297v51.648h-228.37" fill="none" stroke="#000" stroke-miterlimit="10" stroke-width="1.5"/><path d="m301.23691 740.27895h9.68401v9.68401h-9.68401z"/><path d="m154.32854 486.24106h19.10116v129.61142h-19.10116z" fill="#d6d6d6"/><g fill="none" stroke="#000" stroke-miterlimit="10" stroke-width="1.5"><path d="m173.43 615.852h-19.101v-129.611"/><path d="m159.33072 510.48841h14.09897"/><path d="m159.33072 515.70808h14.09897"/><path d="m159.33072 520.92776h14.09897"/></g><path d="m177.83589 486.24106h19.10116v129.61142h-19.10116z" fill="#edeeef"/><g fill="none" stroke="#000" stroke-miterlimit="10" stroke-width="1.5"><path d="m196.937 615.852h-19.101v-129.611"/><path d="m182.83808 510.48841h14.09897"/><path d="m182.83808 515.70808h14.09897"/><path d="m182.83808 520.92776h14.09897"/></g><path d="m201.34325 486.24106h19.10116v129.61142h-19.10116z" fill="#d6d6d6"/><g fill="none" stroke="#000" stroke-miterlimit="10" stroke-width="1.5"><path d="m220.444 615.852h-19.101v-129.611"/><path d="m206.34544 510.48841h14.09897"/><path d="m206.34544 515.70808h14.09897"/><path d="m206.34544 520.92776h14.09897"/></g><path d="m224.85061 486.24106h19.10116v129.61142h-19.10116z" fill="#edeeef"/><g fill="none" stroke="#000" stroke-miterlimit="10" stroke-width="1.5"><path d="m243.952 615.852h-19.101v-129.611"/><path d="m229.8528 510.48841h14.09897"/><path d="m229.8528 515.70808h14.09897"/><path d="m229.8528 520.92776h14.09897"/></g><path d="m248.35797 486.24106h19.10116v129.61142h-19.10116z" fill="#d6d6d6"/><g fill="none" stroke="#000" stroke-miterlimit="10" stroke-width="1.5"><path d="m267.459 615.852h-19.101v-129.611"/><path d="m253.36016 510.48841h14.09897"/><path d="m253.36016 515.70808h14.09897"/><path d="m253.36016 520.92776h14.09897"/></g><path d="m271.86533 486.24106h19.10116v129.61142h-19.10116z" fill="#edeeef"/><g fill="none" stroke="#000" stroke-miterlimit="10" stroke-width="1.5"><path d="m290.966 615.852h-19.101v-129.611"/><path d="m276.86752 510.48841h14.09897"/><path d="m276.86752 515.70808h14.09897"/><path d="m276.86752 520.92776h14.09897"/></g><path d="m295.37269 486.24106h19.10116v129.61142h-19.10116z" fill="#d6d6d6"/><g fill="none" stroke="#000" stroke-miterlimit="10" stroke-width="1.5"><path d="m314.474 615.852h-19.101v-129.611"/><path d="m300.37488 510.48841h14.09897"/><path d="m300.37488 515.70808h14.09897"/><path d="m300.37488 520.92776h14.09897"/></g><path d="m318.88005 486.24106h19.10116v129.61142h-19.10116z" fill="#edeeef"/><g fill="none" stroke="#000" stroke-miterlimit="10" stroke-width="1.5"><path d="m337.981 615.852h-19.101v-129.611"/><path d="m323.88224 510.48841h14.09896"/><path d="m323.88224 515.70808h14.09896"/><path d="m323.88224 520.92776h14.09896"/></g><path d="m358.10048 486.24106h19.10116v129.61142h-19.10116z" fill="#d6d6d6" transform="matrix(.96053222 -.27816874 .27816874 .96053222 -138.77358 124.01758)"/><g fill="none" stroke="#000" stroke-miterlimit="10" stroke-width="1.5"><path d="m394.852 610.638-18.348 5.313-36.053-124.496"/><path d="m352.00012 513.35438 13.54252-3.9219"/><path d="m353.45207 518.36804 13.54252-3.92189"/><path d="m354.90402 523.38171 13.54252-3.92189"/></g></svg>