<svg viewBox="0 0 1000 1000" xmlns="http://www.w3.org/2000/svg"><path d="m855.5101 231.78624c-62.65842 0-116.279-26.7927-138.32651-64.74468-22.04752 37.952-75.66819 64.74468-138.32651 64.74468a214.78908 214.78908 0 0 1 -26.98542-1.69271v207.17407a137.18221 137.18221 0 0 0 68.59143 118.80371l96.7205 55.84194 96.72051-55.84194a137.18223 137.18223 0 0 0 68.59143-118.80371v-207.17407a214.78936 214.78936 0 0 1 -26.98543 1.69271z" fill="#edeeef"/><path d="m813.90413 556.07143a137.18243 137.18243 0 0 0 68.59139-118.80388v-207.174a214.78953 214.78953 0 0 1 -26.9854 1.69268c-62.65848 0-116.27895-26.79265-138.32653-64.74477v444.872z" fill="#d6d6d6"/><path d="m717.18359 611.91344 96.72054-55.842a137.18243 137.18243 0 0 0 68.59139-118.80388v-207.174a214.78953 214.78953 0 0 1 -26.9854 1.69268c-62.65848 0-116.27895-26.79265-138.32653-64.74477" fill="none" stroke="#000" stroke-miterlimit="10" stroke-width="1.5"/><path d="m581.531 804.573h-50.047v-21.174h-51.135v-25.025l-38.079-33.688h-57.663v-97.211h-75.071v-120.312l-94.654 83.737v159.774h-50.047v70.774h-20.672v-19.762h-36.991v39.524h499.383v-14.499z" fill="#f4f4f4"/><path d="m83.23606 841.21043h547.25428" fill="none" stroke="#000" stroke-miterlimit="10" stroke-width="1.5"/><g fill="#fff"><path d="m315.32366 651.82906h6.8374v6.04877h-6.8374z"/><path d="m331.96133 651.82906h6.8374v6.04877h-6.8374z"/><path d="m348.59899 651.82906h6.8374v6.04877h-6.8374z"/><path d="m315.32366 668.13798h6.8374v6.04877h-6.8374z"/><path d="m331.96133 668.13798h6.8374v6.04877h-6.8374z"/><path d="m348.59899 668.13798h6.8374v6.04877h-6.8374z"/><path d="m315.32366 684.4469h6.8374v6.04877h-6.8374z"/><path d="m331.96133 684.4469h6.8374v6.04877h-6.8374z"/><path d="m348.59899 684.4469h6.8374v6.04877h-6.8374z"/><path d="m315.32366 700.75581h6.8374v6.04877h-6.8374z"/><path d="m331.96133 700.75581h6.8374v6.04877h-6.8374z"/><path d="m348.59899 700.75581h6.8374v6.04877h-6.8374z"/><path d="m315.32366 717.06473h6.8374v6.04877h-6.8374z"/><path d="m331.96133 717.06473h6.8374v6.04877h-6.8374z"/><path d="m348.59899 717.06473h6.8374v6.04877h-6.8374z"/><path d="m315.32366 733.37364h6.8374v6.04877h-6.8374z"/><path d="m331.96133 733.37364h6.8374v6.04877h-6.8374z"/><path d="m348.59899 733.37364h6.8374v6.04877h-6.8374z"/><path d="m315.32366 749.68256h6.8374v6.04877h-6.8374z"/><path d="m331.96133 749.68256h6.8374v6.04877h-6.8374z"/><path d="m348.59899 749.68256h6.8374v6.04877h-6.8374z"/><path d="m315.32366 765.99148h6.8374v6.04877h-6.8374z"/><path d="m331.96133 765.99148h6.8374v6.04877h-6.8374z"/><path d="m348.59899 765.99148h6.8374v6.04877h-6.8374z"/><path d="m315.32366 782.30039h6.8374v6.04877h-6.8374z"/><path d="m331.96133 782.30039h6.8374v6.04877h-6.8374z"/><path d="m348.59899 782.30039h6.8374v6.04877h-6.8374z"/></g><path d="m462.28849 441.48021-63.72188-9.90429s-46.9539 224.02187-21.75546 391.14922l-7.43282 16.48515h84.42657l23.97187-254.92461z" fill="#e2e2e2"/><path d="m419.9144 436.82293s-16.14966 263.58907 29.46333 388.38907l-9.52784 13.99844h81.12784s8.86308-335.27031 8.86308-407.63437z" fill="#edeeef"/><path d="m419.9144 436.82293s-16.14966 263.58907 29.46333 388.38907l-9.52784 13.99844" fill="none" stroke="#000" stroke-miterlimit="10" stroke-width="1.5"/><path d="m477.777 232.881v34.256l-42.437 10.43v-57.809l42.437-10.43z" fill="#edeeef"/><circle cx="453.80484" cy="243.59823" r="1.13465"/><circle cx="471.23226" cy="243.59823" r="1.13465"/><g fill="none" stroke="#000" stroke-miterlimit="10" stroke-width="1.5"><path d="m466.119 250.367v-17.486h8.76"/><path d="m451.66731 232.88104h8.75991"/><path d="m476.24279 230.01787h-.00001"/></g><path d="m438.13547 241.84038v6.07226a5.93084 5.93084 0 0 1 -5.93084-5.93083q0-.273.02424-.53983c.33229-3.68287 5.9066-3.29943 5.9066.3984z" fill="#edeeef"/><g fill="none" stroke-width="1.5"><path d="m438.13547 247.91264a5.93084 5.93084 0 0 1 -5.93084-5.93083" stroke="#000" stroke-miterlimit="10"/><path d="m462.28812 254.6775a6.00274 6.00274 0 0 1 -6.00274-6.00274" stroke="#ff6498" stroke-linecap="round" stroke-linejoin="round"/><g stroke="#000" stroke-miterlimit="10"><path d="m477.77663 267.13674-42.43617 10.4301"/><path d="m466.11947 250.38082-3.83135.94168" stroke-linecap="round"/></g></g><path d="m398.56677 338.9096v92.6664l131.274 32.265v-103.20508a79.49342 79.49342 0 0 0 -60.52-77.19594h-.00013a57.12046 57.12046 0 0 0 -70.75395 55.46958z" fill="#ff6498"/><path d="m477.77663 230.01787c0-1.44365 15.666-27.04365-22.83714-27.577s-19.76944 36.42478-19.76944 36.42478" fill="none" stroke="#000" stroke-miterlimit="10" stroke-width="1.5"/><path d="m438.13547 234.50756s5.63427-8.4 6.03427-11.8c0 0 27.54609.4 32.073-6" fill="none" stroke="#000" stroke-miterlimit="10" stroke-width="1.5"/><path d="m432.598 309.457-18.828 98.051 6.933 18.133 17.432-14.933-1.165-100.534 6.133-8.8h-14.667z"/><g fill="none" stroke="#000" stroke-miterlimit="10" stroke-width="1.5"><path d="m503.3301 301.37422s155.23964 150.93334-11.96036 246.13334l-17.87987-28 36.27987-93.86667-34.89036-48.53333"/><path d="m491.36974 547.50756-34.73804-54.4"/><path d="m408.74886 306.32481s-76.18941 118.15291-24.1176 207.80119"/></g><path d="m672.46449 383.31158h14v71.42681h-14z" fill="#ff6498" transform="matrix(.70710678 -.70710678 .70710678 .70710678 -97.28487 603.18353)"/><path d="m742.61897 311.9774h14v155h-14z" fill="#ff6498" transform="matrix(.70710678 .70710678 -.70710678 .70710678 494.96043 -415.98536)"/><g fill="#edeeef"><path d="m228.75386 170.81779a41.99084 41.99084 0 0 0 -42.0654 41.916l83.9815.14941a41.99087 41.99087 0 0 0 -41.9161-42.06541z"/><path d="m316.229 189.02412a23.94014 23.94014 0 0 0 -23.98265 23.8975l47.88019.08519a23.94015 23.94015 0 0 0 -23.89754-23.98269z"/><path d="m270.748 168.97288a43.91046 43.91046 0 0 0 -43.98841 43.83224l87.82071.15624a43.91047 43.91047 0 0 0 -43.8323-43.98848z"/></g><path d="m178.97256 212.7201 172.60959.30709" fill="none" stroke="#000" stroke-miterlimit="10" stroke-width="1.5"/><g fill="#edeeef"><path d="m313.96406 262.83828a34.8052 34.8052 0 0 1 34.867 34.74321l-69.61026.12384a34.80522 34.80522 0 0 1 34.74326-34.86705z"/><path d="m241.458 277.92908a19.84342 19.84342 0 0 1 19.87865 19.80807l-39.68675.0706a19.84341 19.84341 0 0 1 19.8081-19.87867z"/><path d="m279.1561 261.30908a36.39633 36.39633 0 0 1 36.461 36.3315l-72.7925.1295a36.39636 36.39636 0 0 1 36.3315-36.461z"/></g><path d="m355.22659 297.57011-143.07197.25454" fill="none" stroke="#000" stroke-miterlimit="10" stroke-width="1.5"/><path d="m765.18647 666.76678a46.86959 46.86959 0 0 1 -12.43-18.75767 44.3343 44.3343 0 0 0 -83.37563 0 46.8698 46.8698 0 0 1 -12.43 18.75767 44.33378 44.33378 0 0 0 37.75172 76.38629 92.08883 92.08883 0 0 1 32.7321 0 44.32255 44.32255 0 0 0 37.75173-76.38629z" fill="#ff6498"/><g fill="none" stroke="#000" stroke-miterlimit="10" stroke-width="1.5"><path d="m694.70264 743.15307a92.08883 92.08883 0 0 1 32.7321 0 44.35687 44.35687 0 0 0 52.238-43.61381"/><path d="m622.29783 841.21043h177.54172"/><path d="m711.06869 712.3985v128.81193"/><path d="m729.872 693.596-18.803 18.803-18.803-18.803"/></g><path d="m636.81239 743.67778a26.20521 26.20521 0 0 1 -6.94967-10.48754 24.78762 24.78762 0 0 0 -46.6159 0 26.20521 26.20521 0 0 1 -6.94967 10.48754 24.78731 24.78731 0 0 0 21.10725 42.7081 51.48776 51.48776 0 0 1 18.30074 0 24.781 24.781 0 0 0 21.10725-42.7081z" fill="#ff6498"/><g fill="none" stroke="#000" stroke-miterlimit="10" stroke-width="1.5"><path d="m597.4044 786.38588a51.48776 51.48776 0 0 1 18.30074 0 24.80019 24.80019 0 0 0 29.20661-24.38478"/><path d="m606.55477 769.19079v72.01964"/><path d="m617.068 758.678-10.513 10.513-10.513-10.513"/></g></svg>