<svg viewBox="0 0 1000 1000" xmlns="http://www.w3.org/2000/svg"><path d="m346.2 223.783-5.551 11.247-12.411 1.803 8.981 8.754-2.12 12.361 11.101-5.836 11.1 5.836-2.12-12.361 8.981-8.754-12.411-1.803z" fill="#edeeef"/><path d="m355.18037 245.58714 8.98081-8.75412" fill="none" stroke="#000" stroke-miterlimit="10" stroke-width="1.5"/><path d="m346.2 223.783-5.551 11.247-12.411 1.803 8.981 8.754-2.12 12.361 11.101-5.836 11.1 5.836" fill="none" stroke="#000" stroke-miterlimit="10" stroke-width="1.5"/><path d="m296.637 223.783-5.55 11.247-12.412 1.803 8.981 8.754-2.12 12.361 11.101-5.836 11.101 5.836-2.12-12.361 8.981-8.754-12.412-1.803z" fill="#ff6498"/><path d="m305.61778 245.58714 8.98081-8.75412" fill="none" stroke="#000" stroke-miterlimit="10" stroke-width="1.5"/><path d="m296.637 223.783-5.55 11.247-12.412 1.803 8.981 8.754-2.12 12.361 11.101-5.836 11.101 5.836" fill="none" stroke="#000" stroke-miterlimit="10" stroke-width="1.5"/><path d="m247.074 223.783-5.55 11.247-12.411 1.803 8.981 8.754-2.121 12.361 11.101-5.836 11.101 5.836-2.12-12.361 8.981-8.754-12.411-1.803z" fill="#ff6498"/><path d="m256.05519 245.58714 8.9808-8.75412" fill="none" stroke="#000" stroke-miterlimit="10" stroke-width="1.5"/><path d="m247.074 223.783-5.55 11.247-12.411 1.803 8.981 8.754-2.121 12.361 11.101-5.836 11.101 5.836" fill="none" stroke="#000" stroke-miterlimit="10" stroke-width="1.5"/><path d="m197.512 223.783-5.551 11.247-12.411 1.803 8.981 8.754-2.12 12.361 11.101-5.836 11.101 5.836-2.12-12.361 8.98-8.754-12.411-1.803z" fill="#ff6498"/><path d="m206.49259 245.58714 8.98081-8.75412" fill="none" stroke="#000" stroke-miterlimit="10" stroke-width="1.5"/><path d="m197.512 223.783-5.551 11.247-12.411 1.803 8.981 8.754-2.12 12.361 11.101-5.836 11.101 5.836" fill="none" stroke="#000" stroke-miterlimit="10" stroke-width="1.5"/><path d="m147.949 223.783-5.55 11.247-12.411 1.803 8.98 8.754-2.12 12.361 11.101-5.836 11.101 5.836-2.12-12.361 8.981-8.754-12.411-1.803z" fill="#ff6498"/><path d="m156.93 245.58714 8.98081-8.75412" fill="none" stroke="#000" stroke-miterlimit="10" stroke-width="1.5"/><path d="m147.949 223.783-5.55 11.247-12.411 1.803 8.98 8.754-2.12 12.361 11.101-5.836 11.101 5.836" fill="none" stroke="#000" stroke-miterlimit="10" stroke-width="1.5"/><path d="m387.295 804.573h50.047v-21.174h51.135v-25.025l38.08-33.688h57.663v-97.211h75.07v-120.312l94.655 83.737v159.774h50.047v70.774h20.671v-19.762h36.992v39.524h-499.384v-14.499z" fill="#f4f4f4"/><path d="m885.59017 841.21043h-547.25428" fill="none" stroke="#000" stroke-miterlimit="10" stroke-width="1.5"/><g fill="#fff"><path d="m646.66517 651.82906h6.8374v6.04877h-6.8374z" transform="matrix(-1 0 0 -1 1300.16774 1309.7069)"/><path d="m630.02751 651.82906h6.8374v6.04877h-6.8374z" transform="matrix(-1 0 0 -1 1266.89241 1309.7069)"/><path d="m613.38984 651.82906h6.8374v6.04877h-6.8374z" transform="matrix(-1 0 0 -1 1233.61707 1309.7069)"/><path d="m646.66517 668.13798h6.8374v6.04877h-6.8374z" transform="matrix(-1 0 0 -1 1300.16774 1342.32473)"/><path d="m630.02751 668.13798h6.8374v6.04877h-6.8374z" transform="matrix(-1 0 0 -1 1266.89241 1342.32473)"/><path d="m613.38984 668.13798h6.8374v6.04877h-6.8374z" transform="matrix(-1 0 0 -1 1233.61707 1342.32473)"/><path d="m646.66517 684.4469h6.8374v6.04877h-6.8374z" transform="matrix(-1 0 0 -1 1300.16774 1374.94256)"/><path d="m630.02751 684.4469h6.8374v6.04877h-6.8374z" transform="matrix(-1 0 0 -1 1266.89241 1374.94256)"/><path d="m613.38984 684.4469h6.8374v6.04877h-6.8374z" transform="matrix(-1 0 0 -1 1233.61707 1374.94256)"/><path d="m646.66517 700.75581h6.8374v6.04877h-6.8374z" transform="matrix(-1 0 0 -1 1300.16774 1407.56039)"/><path d="m630.02751 700.75581h6.8374v6.04877h-6.8374z" transform="matrix(-1 0 0 -1 1266.89241 1407.56039)"/><path d="m613.38984 700.75581h6.8374v6.04877h-6.8374z" transform="matrix(-1 0 0 -1 1233.61707 1407.56039)"/><path d="m646.66517 717.06473h6.8374v6.04877h-6.8374z" transform="matrix(-1 0 0 -1 1300.16774 1440.17823)"/><path d="m630.02751 717.06473h6.8374v6.04877h-6.8374z" transform="matrix(-1 0 0 -1 1266.89241 1440.17823)"/><path d="m613.38984 717.06473h6.8374v6.04877h-6.8374z" transform="matrix(-1 0 0 -1 1233.61707 1440.17823)"/><path d="m646.66517 733.37364h6.8374v6.04877h-6.8374z" transform="matrix(-1 0 0 -1 1300.16774 1472.79606)"/><path d="m630.02751 733.37364h6.8374v6.04877h-6.8374z" transform="matrix(-1 0 0 -1 1266.89241 1472.79606)"/><path d="m613.38984 733.37364h6.8374v6.04877h-6.8374z" transform="matrix(-1 0 0 -1 1233.61707 1472.79606)"/><path d="m646.66517 749.68256h6.8374v6.04877h-6.8374z" transform="matrix(-1 0 0 -1 1300.16774 1505.41389)"/><path d="m630.02751 749.68256h6.8374v6.04877h-6.8374z" transform="matrix(-1 0 0 -1 1266.89241 1505.41389)"/><path d="m613.38984 749.68256h6.8374v6.04877h-6.8374z" transform="matrix(-1 0 0 -1 1233.61707 1505.41389)"/><path d="m646.66517 765.99148h6.8374v6.04877h-6.8374z" transform="matrix(-1 0 0 -1 1300.16774 1538.03172)"/><path d="m630.02751 765.99148h6.8374v6.04877h-6.8374z" transform="matrix(-1 0 0 -1 1266.89241 1538.03172)"/><path d="m613.38984 765.99148h6.8374v6.04877h-6.8374z" transform="matrix(-1 0 0 -1 1233.61707 1538.03172)"/><path d="m646.66517 782.30039h6.8374v6.04877h-6.8374z" transform="matrix(-1 0 0 -1 1300.16774 1570.64956)"/><path d="m630.02751 782.30039h6.8374v6.04877h-6.8374z" transform="matrix(-1 0 0 -1 1266.89241 1570.64956)"/><path d="m613.38984 782.30039h6.8374v6.04877h-6.8374z" transform="matrix(-1 0 0 -1 1233.61707 1570.64956)"/></g><path d="m352.278 431.57605s-48.07772 166.11618-68.74473 366.36395l-15.02618 9.99705 65.5916 31.27334 83.81636-230.14987 13.53184-185.86551" fill="#e2e2e2"/><path d="m372.093 429.612 93.671-6.417 17.032 6.937 8.005 409.078h-87.004l9.2-16.485z" fill="#edeeef"/><path d="m391.80573 232.88106v14.78558a24.835 24.835 0 0 0 18.90739 24.11724l23.52878 5.783v-57.80867l-19.564-4.8085a18.465 18.465 0 0 0 -22.8722 17.93132z" fill="#edeeef"/><path d="m391.80573 247.66664a24.835 24.835 0 0 0 18.90739 24.11724l23.52878 5.783" fill="none" stroke="#000" stroke-miterlimit="10" stroke-width="1.5"/><circle cx="415.77751" cy="243.59824" r="1.13465"/><circle cx="398.3501" cy="243.59824" r="1.13465"/><g fill="none" stroke="#000" stroke-miterlimit="10" stroke-width="1.5"><path d="m403.463 250.367v-17.486h-6.706"/><path d="m417.91505 232.88106h-8.75992"/><path d="m393.33957 230.01789h.00001"/></g><path d="m431.44689 241.8404v6.07226a5.93084 5.93084 0 0 0 5.93084-5.93084q0-.273-.02424-.53983c-.33229-3.68286-5.9066-3.29942-5.9066.39841z" fill="#edeeef"/><g fill="none" stroke-width="1.5"><path d="m431.44689 247.91266a5.93084 5.93084 0 0 0 5.93084-5.93084" stroke="#000" stroke-miterlimit="10"/><g stroke-linecap="round"><path d="m408.25245 252.41a3.92722 3.92722 0 0 0 5.55392 0" stroke="#ff6498" stroke-linejoin="round"/><path d="m403.46289 250.38084 3.83135.94168" stroke="#000" stroke-miterlimit="10"/></g></g><path d="m352.278 338.90962v92.66643l131.274 32.265v-103.20512a79.49343 79.49343 0 0 0 -60.52-77.19593h-.00013a57.12045 57.12045 0 0 0 -70.75387 55.46955z" fill="#ff6498"/><g fill="none" stroke="#000" stroke-miterlimit="10" stroke-width="1.5"><path d="m412.99678 822.72518-40.90413-393.11317"/><path d="m390.90709 243.59824-13-7.12781s19-54.4 58-30.4-1.66519 51.4-1.66519 51.4"/><path d="m389.97376 234.20376s25.80479-4.15963 34.79154-16.77474c0 0-3.65529 18.26573 7.17658 22.72023"/><path d="m452.819 297.8465s44.48809 31.28579 63.68809 74.95486c0 0-6.8-80.33093 2.8-93.53093 5.06785-6.96829 10.8 2.49129 10.8 2.49129s25.2-10.49129 26-6.49129-14 19.2-14 19.2 21.6 99.43864 4.8 127.83864-102-28.23864-102-28.23864"/></g><path d="m454.0861 399.84526s.17859 38.99889 29.466 55.5891v-39.43724z"/><path d="m374.69677 293.545s-39.523 29.29018-46.98968 58.77448c0 0-12.26666-79.80116-19.2-77.95843s-8.53333 7.40069-8.53333 7.40069-21.86667-11.43961-25.06667-7.43212 19.2 25.87416 19.2 25.87416-13.55088 95.36513 2.13334 108.26667c33.06666 27.2 56.0376-11.73334 56.0376-11.73334" fill="none" stroke="#000" stroke-miterlimit="10" stroke-width="1.5"/><path d="m660.426 283.795-32.849 33.354v-33.354z" fill="#e2e2e2"/><path d="m627.57708 317.14895v-33.35394" fill="none" stroke="#000" stroke-miterlimit="10" stroke-width="1.5"/><path d="m573.65091 143.19939h217.33865v145.89475h-217.33865z" fill="#edeeef" transform="matrix(-1 0 0 -1 1364.64046 432.29354)"/><path d="m573.651 143.199v145.895h53.926" fill="none" stroke="#000" stroke-miterlimit="10" stroke-width="1.5"/><g fill="#ff6498"><path d="m718.48874 209.467h13.35954v13.35954h-13.35954z" transform="matrix(-1 0 0 -1 1450.33701 432.29354)"/><path d="m675.64046 209.467h13.35954v13.35954h-13.35954z" transform="matrix(-1 0 0 -1 1364.64046 432.29354)"/><path d="m632.79219 209.467h13.35954v13.35954h-13.35954z" transform="matrix(-1 0 0 -1 1278.94392 432.29354)"/></g></svg>