<svg viewBox="0 0 1000 1000" xmlns="http://www.w3.org/2000/svg"><circle cx="591.20658" cy="379.25591" fill="#edeeef" r="153.16553"/><circle cx="591.20658" cy="379.25591" fill="none" r="153.16553" stroke="#000" stroke-miterlimit="10" stroke-width="1.5"/><g fill="#edeeef"><path d="m535.52703 187.42623h111.3591v383.65936h-111.3591z"/><path d="m535.52703 187.42623h111.3591v383.65936h-111.3591z" transform="matrix(.5 -.8660254 .8660254 .5 -32.84196 701.62787)"/><path d="m535.52703 187.42623h111.3591v383.65936h-111.3591z" transform="matrix(-.5 -.8660254 .8660254 -.5 558.36461 1080.88378)"/></g><circle cx="591.20658" cy="379.25591" fill="#ff6498" r="38.29138"/><path d="m552.91519 379.25591a38.29139 38.29139 0 0 1 38.29139-38.29139" fill="none" stroke="#000" stroke-miterlimit="10" stroke-width="1.5"/><path d="m468.59023 808.00614c-13.19941-137.99314-95.15323-342.16524-95.15323-342.16524l-71.63975-44.21562 7.91836 110.39453 10.67559 105.37343 90.60185 203.81719 82.7958-26.00469z" fill="#e2e2e2"/><path d="m352.08937 438.82293s16.14963 263.58907-29.46337 388.38907l9.52783 13.99844h-81.12783s-8.863-335.27032-8.863-407.63438z" fill="#edeeef"/><path d="m323.288 234.881v34.256l-42.436 10.43v-57.809l42.436-10.43z" fill="#edeeef"/><circle cx="299.31669" cy="245.59823" r="1.13465"/><circle cx="316.74411" cy="245.59823" r="1.13465"/><g fill="none" stroke="#000" stroke-miterlimit="10" stroke-width="1.5"><path d="m311.631 252.367v-17.486h8.76"/><path d="m297.17916 234.88104h8.75991"/><path d="m321.75464 232.01787h-.00001"/></g><path d="m283.64732 243.84038v6.07226a5.93084 5.93084 0 0 1 -5.93084-5.93083q0-.273.02424-.53983c.33228-3.68287 5.9066-3.29943 5.9066.3984z" fill="#edeeef"/><g fill="none" stroke-width="1.5"><path d="m283.64732 249.91264a5.93084 5.93084 0 0 1 -5.93084-5.93083" stroke="#000" stroke-miterlimit="10"/><path d="m307.8 256.6775a6.00274 6.00274 0 0 1 -6.00274-6.00274" stroke="#ff6498" stroke-linecap="round" stroke-linejoin="round"/><g stroke="#000" stroke-miterlimit="10"><path d="m323.28848 269.13674-42.43617 10.4301"/><path d="m311.63131 252.38082-3.83134.94168" stroke-linecap="round"/><path d="m324.72924 220.012s-10.568 7.86667-31.6347 5.46667c0 0 0 13.8905-7.46667 18.14525"/><path d="m324.72924 237.87866s17.21-22.4-7.679-28.66667-36.35568 6-36.35568 6-23.54376 3.86667 1.42812 46.93334"/></g></g><path d="m242.163 340.9096v92.6664l131.274 32.265v-103.20508a79.49343 79.49343 0 0 0 -60.52-77.19592h-.00013a57.12046 57.12046 0 0 0 -70.75387 55.46953z" fill="#ff6498"/><path d="m352.08937 438.82293s16.14963 263.58907-29.46337 388.38907" fill="none" stroke="#000" stroke-miterlimit="10" stroke-width="1.5"/><path d="m255.94337 303.68886s-71.52 94.888-42.126 150.85647 171.2-28.26667 172.8-43.2-31.75247-6.93334-31.75247-6.93334 4.01913-27.2-13.04753-.53333l-64.10089 6.93334 20.79742-50.13333" fill="none" stroke="#000" stroke-miterlimit="10" stroke-width="1.5"/><path d="m284.69277 393.9952-6.97627 16.8168 48.05186-5.19746c-11.16895-5.8543-25.32608-9.98282-41.07559-11.61934z"/><path d="m242.56 472.92567c.109 7.16015.23789 14.88359.384 23.07773 33.86485-.27793 77.89942-18.5916 97.7752-38.2041l.00849.00215c.25342-.25.49522-.50039.74073-.75078.06533-.0668.13242-.13321.19726-.2.33418-.344.6586-.68828.97754-1.03282.05752-.06211.1168-.12421.17383-.18632.32109-.3502.632-.70039.93691-1.05079.04922-.05664.1-.11328.14883-.16972.30723-.35645.604-.71289.894-1.06934.041-.05039.0835-.10078.12413-.15117q.44134-.54726.85322-1.09414c.03115-.04141.06377-.08281.09463-.124q.41982-.55987.8084-1.11895c.02285-.033.047-.066.06982-.099q.39507-.57042.75693-1.14c.01621-.02539.0334-.051.04952-.07637q.3687-.58212.70244-1.16269l.02939-.05q.33882-.59063.64072-1.1795l.01661-.03183q.30658-.59855.57421-1.19473l.00528-.01113a19.15811 19.15811 0 0 0 1.71211-6.35293c-31.58108 18.40207-77.5133 37.57648-108.6742 33.37043z"/><g fill="none" stroke="#000" stroke-miterlimit="10" stroke-width="1.5"><path d="m335.25625 404.58832 1.05834-3.23626a22.17219 22.17219 0 0 1 17.39767-14.97362l44.04232-7.405a15.95282 15.95282 0 0 1 17.15173 9.095.78078.78078 0 0 0 .82518.4474l91.95251-13.7145 1.161-3.94109a3.473 3.473 0 0 1 3.7831-2.46215l18.61418 2.4412a3.26653 3.26653 0 0 1 2.84176 3.23879v2.24281a3.26653 3.26653 0 0 1 -2.06976 3.0394l-15.68766 6.177a5.20962 5.20962 0 0 1 -5.97669-1.593l-1.86593-2.3323-92.0234 15.93478a.78075.78075 0 0 0 -.55611.40267l-.34662.65164a41.775 41.775 0 0 1 -29.31387 21.46566l-8.46055 1.55853"/><path d="m330.52567 292.05318s37.55833 15.95882 92.75833 94.26947"/><path d="m373.437 441.74533s63.847 22.4 81.447 5.86666 22.93334-61.28934 22.93334-61.28934"/><path d="m477.81732 379.25591s3.86668-38.44391 3.46668-49.64391c0 0 6.60977 3.6 12.50488 1.6 0 0 3.89512 6.4 6.69512 6s1.6-13.6-9.2-27.2-58.91023-13.51217-73.05511 69.24392"/></g><path d="m262.56593 750.21647c-3.49311-9.78071-13.72629 3.1375-13.72629 3.1375s12.32905-26.192 0-32.13033c-6.08177-2.92923-9.28216.517-10.96509 4.7609 6.30836-38.08371 7.66966-111.53707-17.79232-114.09533-27.81268-2.79449-18.29646 67.76639-18.29646 67.76639s-7.68485-20.26006-17.46505-11.178 9.08158 68.465 9.08158 68.465c-2.09587-6.28761-13.27383-11.178-17.46556 0s11.87658 34.93112 11.87658 34.93112l55.19118 9.0821s23.0545-20.95863 19.56143-30.73935z"/><path d="m258.459 839.643h-79.029l-17.476-70.621h113.981z" fill="#ff6498"/><path d="m91.32267 839.6433h263.54218" fill="none" stroke="#000" stroke-miterlimit="10" stroke-width="1.5"/><path d="m161.95381 769.02197h113.98103" fill="none" stroke="#000" stroke-miterlimit="10" stroke-width="1.5"/><path d="m897.459 839.643h-289.934l111.16-247.442h178.774z"/><g fill="#edeeef"><path d="m487.59524 804.29442h189.08724v35.34889h-189.08724z"/><path d="m519.16797 768.94553h189.08724v35.34889h-189.08724z"/><path d="m550.74071 733.59664h189.08724v35.34889h-189.08724z"/><path d="m582.31344 698.24775h189.08724v35.34889h-189.08724z"/><path d="m613.88618 662.89887h189.08724v35.34889h-189.08724z"/><path d="m645.45891 627.54998h189.08724v35.34889h-189.08724z"/><path d="m677.03165 592.20109h189.08724v35.34889h-189.08724z"/></g><g fill="none" stroke="#000" stroke-miterlimit="10" stroke-width="1.5"><path d="m487.595 804.294h189.087v35.349h-189.087"/><path d="m519.168 768.946h189.087v35.348h-189.087"/><path d="m550.741 733.597h189.087v35.349h-189.087"/><path d="m582.313 698.248h189.088v35.349h-189.088"/><path d="m613.886 662.899h189.087v35.349h-189.087"/><path d="m645.459 627.55h189.087v35.349"/><path d="m677.032 592.201h189.087v35.349h-189.087"/><path d="m476.37675 839.6433h432.30058"/></g></svg>