<svg viewBox="0 0 1000 1000" xmlns="http://www.w3.org/2000/svg"><path d="m182.08743 130.43903h370.17392v709.01513h-370.17392z" fill="#edeeef"/><path d="m62.50323 839.45415h609.34231" fill="none" stroke="#000" stroke-miterlimit="10" stroke-width="1.5"/><path d="m414.6 860.643-232.513-21.189v-709.015l232.513 21.189z" fill="#ff6498"/><path d="m182.087 130.439 232.513 21.189v709.015" fill="none" stroke="#000" stroke-miterlimit="10" stroke-width="1.5"/><circle cx="340.52034" cy="496.59883" fill="#edeeef" r="11.65224"/><path d="m902.324 824.991v-22.281l-20.566 18.853-6.855-59.128-53.987 38.561-6.855-25.707-18.852 18.852v-30.849l-23.137 27.421-20.567-61.698-25.707 63.455-37.705-47.174-28.279 64.27v-30.85l-16.282 29.993-11.14-40.276-30.849 47.988-47.131-59.128-14.568 58.271-13.711-16.281-10.283 40.36h395.901l3.427-15.509z" fill="#f4f4f4"/><path d="m493.53199 839.6433h443.96478" fill="none" stroke="#000" stroke-miterlimit="10" stroke-width="1.5"/><circle cx="809.54402" cy="246.13216" fill="#edeeef" r="102.03398"/><g fill="none" stroke="#000" stroke-miterlimit="10" stroke-width="1.5"><path d="m809.54402 141.43485v209.39463"/><path d="m914.24133 246.13216h-209.39463"/><path d="m707.51 246.13216a102.034 102.034 0 0 1 102.034-102.034"/></g><path d="m701.732 821.387v-206.4l-56.26-52.8-6.14 275.456h75.2z" fill="#e2e2e2"/><path d="m687.292 428.045-93.671-6.417-17.033 120.015v296h87.004l-9.199-16.485z" fill="#edeeef"/><path d="m643.59126 646.57248a398.086 398.086 0 0 0 58.141-13.72852l-57.22616-27.32265z"/><path d="m576.58833 573.09357v76.48672c32.55156 3.30547 67.99824-2.37461 92.83281-7.99687l1.94473-23.2379z"/><path d="m663.592 837.643-9.199-16.485 32.899-393.113" fill="none" stroke="#000" stroke-miterlimit="10" stroke-width="1.5"/><path d="m579.83505 337.34249v92.66643l131.274 32.265v-103.20511a79.49343 79.49343 0 0 0 -60.52-77.19594h-.00013a57.12046 57.12046 0 0 0 -70.75394 55.46958z" fill="#ff6498"/><path d="m605.83091 231.31393v14.78559a24.835 24.835 0 0 0 18.90739 24.11723l23.52878 5.783v-57.80867l-19.564-4.80849a18.465 18.465 0 0 0 -22.8722 17.93131z" fill="#edeeef"/><path d="m605.83091 246.09952a24.835 24.835 0 0 0 18.90739 24.11723l23.52878 5.783" fill="none" stroke="#000" stroke-miterlimit="10" stroke-width="1.5"/><circle cx="629.80269" cy="242.03112" r="1.13465"/><circle cx="612.37528" cy="242.03112" r="1.13465"/><g fill="none" stroke="#000" stroke-miterlimit="10" stroke-width="1.5"><path d="m617.488 248.8v-17.486h-8.76"/><path d="m631.94023 231.31393h-8.75992"/><path d="m607.36474 228.45076h.00001"/></g><path d="m645.47207 240.27327v6.07226a5.93084 5.93084 0 0 0 5.93084-5.93083q0-.273-.02424-.53983c-.33229-3.68287-5.9066-3.29943-5.9066.3984z" fill="#edeeef"/><g fill="none" stroke-width="1.5"><path d="m645.47207 246.34553a5.93084 5.93084 0 0 0 5.93084-5.93083" stroke="#000" stroke-miterlimit="10"/><path d="m622.27763 250.84283a3.92722 3.92722 0 0 0 5.55392 0" stroke="#ff6498" stroke-linecap="round" stroke-linejoin="round"/><g stroke="#000" stroke-miterlimit="10"><path d="m617.48807 248.81371 3.83135.94168" stroke-linecap="round"/><path d="m605.83091 226.4536s12.41739-1.58712 15.48851-7.6c0 0 3.88966 6.26666 9.61792 5.73333 0 0 3.32827 6.8 9.19493 5.6 0 0-.45482 6.38414 5.3398 7.73333"/><path d="m605.83091 237.92026s-24.89864-14.66666-1.69864-30.4 38.66667-1.06666 38.66667-1.06666 14.93333 4.1864 15.2 12.62653c0 0 6.66667 7.37347 4.53333 14.3068 0 0 8.34376 21.86667-14.09478 28.8"/></g><path d="m648.43749 265.38693a17.68719 17.68719 0 0 0 8.22812-3.2" stroke="#ff6498" stroke-linecap="round" stroke-linejoin="round"/><path d="m648.26708 270.58693v19.56826a14.92156 14.92156 0 0 0 12.41419 14.857 8.63473 8.63473 0 0 0 7.58434-2.02522c7.06666-6.66667 3.6-22.53333-2.53334-26.4a10.8406 10.8406 0 0 0 -6.26666-10.53333" stroke="#000" stroke-miterlimit="10"/></g><path d="m579.83505 430.00892-103.70278 176.178s125.95363 46.91433 234.97682 26.65716v-191.45715" fill="#ff6498"/><g fill="none" stroke="#000" stroke-miterlimit="10" stroke-width="1.5"><path d="m476.13227 606.18693s125.95363 46.91433 234.97682 26.65716"/><path d="m687.29207 302.33216s37.709 32.72126 42.509 75.12126c0 0 7.13125-110.46649 9.53125-115.26649s6.4 18.00766 6.4 18.00766 29.6 9.99234 14.4 31.59234c0 0 41.15363 128-49.02318 140.8"/><path d="m605.83091 289.44556s-31.5653 15.94137-56.632 73.54137c0 0-41.6-67.29359-70.93333-77.38013s-35.2-11.261-36.26667-9.60707 14.93333 13.3872 14.93333 13.3872-8 24.92766 16.53334 29.79716c0 0 3.78091 106.73617 50.42378 121.66951s88.48589-46.4 88.48589-46.4"/></g></svg>