<svg viewBox="0 0 1000 1000" xmlns="http://www.w3.org/2000/svg"><path d="m581.531 804.573h-50.047v-21.174h-51.135v-25.025l-38.079-33.688h-57.663v-97.211h-75.071v-120.312l-94.654 83.737v159.774h-50.047v70.774h-20.672v-19.762h-36.991v39.524h499.383v-14.499z" fill="#f4f4f4"/><g fill="#fff"><path d="m315.32366 651.82906h6.8374v6.04877h-6.8374z"/><path d="m331.96133 651.82906h6.8374v6.04877h-6.8374z"/><path d="m348.59899 651.82906h6.8374v6.04877h-6.8374z"/><path d="m315.32366 668.13798h6.8374v6.04877h-6.8374z"/><path d="m331.96133 668.13798h6.8374v6.04877h-6.8374z"/><path d="m348.59899 668.13798h6.8374v6.04877h-6.8374z"/><path d="m315.32366 684.4469h6.8374v6.04877h-6.8374z"/><path d="m331.96133 684.4469h6.8374v6.04877h-6.8374z"/><path d="m348.59899 684.4469h6.8374v6.04877h-6.8374z"/><path d="m315.32366 700.75581h6.8374v6.04877h-6.8374z"/><path d="m331.96133 700.75581h6.8374v6.04877h-6.8374z"/><path d="m348.59899 700.75581h6.8374v6.04877h-6.8374z"/><path d="m315.32366 717.06473h6.8374v6.04877h-6.8374z"/><path d="m331.96133 717.06473h6.8374v6.04877h-6.8374z"/><path d="m348.59899 717.06473h6.8374v6.04877h-6.8374z"/><path d="m315.32366 733.37364h6.8374v6.04877h-6.8374z"/><path d="m331.96133 733.37364h6.8374v6.04877h-6.8374z"/><path d="m348.59899 733.37364h6.8374v6.04877h-6.8374z"/><path d="m315.32366 749.68256h6.8374v6.04877h-6.8374z"/><path d="m331.96133 749.68256h6.8374v6.04877h-6.8374z"/><path d="m348.59899 749.68256h6.8374v6.04877h-6.8374z"/><path d="m315.32366 765.99148h6.8374v6.04877h-6.8374z"/><path d="m331.96133 765.99148h6.8374v6.04877h-6.8374z"/><path d="m348.59899 765.99148h6.8374v6.04877h-6.8374z"/><path d="m315.32366 782.30039h6.8374v6.04877h-6.8374z"/><path d="m331.96133 782.30039h6.8374v6.04877h-6.8374z"/><path d="m348.59899 782.30039h6.8374v6.04877h-6.8374z"/></g><path d="m83.23606 841.21043h547.25428" fill="none" stroke="#000" stroke-miterlimit="10" stroke-width="1.5"/><path d="m495.24527 431.57605s139.86773 62.53559 220.26373 181.32965h25.19874l-49.19754 56.39718-155.9922-104.39478s-95.9952-14.46863-124.79376-35.9982 17.0862-102.56977 17.0862-102.56977" fill="#e2e2e2"/><path d="m475.572 429.612-93.672-6.417-17.032 6.937-8.005 409.078h87.004l-9.199-16.485z" fill="#edeeef"/><path d="m404.97332 232.88106v14.78558a24.835 24.835 0 0 0 18.90739 24.11724l23.52878 5.783v-57.80867l-19.564-4.8085a18.465 18.465 0 0 0 -22.8722 17.93132z" fill="#edeeef"/><path d="m404.97332 247.66664a24.835 24.835 0 0 0 18.90739 24.11724l23.52878 5.783" fill="none" stroke="#000" stroke-miterlimit="10" stroke-width="1.5"/><circle cx="428.9451" cy="243.59824" r="1.13465"/><circle cx="411.51769" cy="243.59824" r="1.13465"/><path d="m416.63048 250.3668v-17.48574" fill="none" stroke="#000" stroke-miterlimit="10" stroke-width="1.5"/><path d="m406.50715 230.01789h.00001" fill="none" stroke="#000" stroke-miterlimit="10" stroke-width="1.5"/><path d="m444.61448 241.8404v6.07226a5.93083 5.93083 0 0 0 5.93083-5.93084q0-.273-.02423-.53983c-.33229-3.68286-5.9066-3.29942-5.9066.39841z" fill="#edeeef"/><g fill="none" stroke-width="1.5"><path d="m444.61448 247.91266a5.93083 5.93083 0 0 0 5.93083-5.93084" stroke="#000" stroke-miterlimit="10"/><g stroke-linecap="round"><path d="m421.42 252.41a3.92722 3.92722 0 0 0 5.55392 0" stroke="#ff6498" stroke-linejoin="round"/><path d="m416.63048 250.38084 3.83134.94168" stroke="#000" stroke-miterlimit="10"/></g></g><path d="m495.24527 338.90962v92.66643l-131.274 32.265v-103.20512a79.49342 79.49342 0 0 1 60.52-77.19593h.00013a57.12045 57.12045 0 0 1 70.75394 55.46958z" fill="#ff6498"/><g fill="none" stroke="#000" stroke-miterlimit="10" stroke-width="1.5"><path d="m421.42 271.03737s4.16429 17.97263-7.8494 25.23263a6.57689 6.57689 0 0 0 -3.113 5.57084c-.11365 9.09637-2.08095 30.12084-18.032 27.27842-13.03375-2.32256-9.30982-24.58142-4.9874-40.18436a93.49279 93.49279 0 0 0 3.27736-29.98723c-1.14287-21.26907 2.54968-57.65723 42.0572-53.50484a37.64826 37.64826 0 0 1 16.50681 5.57273c10.2188 6.57778 21.63028 21.21482-1.87008 49.837"/><path d="m404.97332 238.18592s26.78561 5.2 30.91895-11.2c0 0 2.06687 11.61693 8.83343 14.00847"/><path d="m434.66756 822.72518 40.90413-393.11317"/><path d="m383.41461 308.5533s-103.58214 98.54277-83.58214 155.2877 134.09453-26.45508 130.24728-51.25508l-3.88835-12.04692s15.31124-21.55308 8.47616-17.55308-67.90138 28.8-67.90138 28.8l21.06629-26.4"/></g><path d="m363.21294 474.17889v40.53359c25.78027-16.54023 53.00429-77.76367 53.00449-77.76445-12.86699 13.39375-32.95332 28.06523-53.00449 37.23086z"/><path d="m444.09914 283.78592s54.93333-3.2 87.46666 12.8l-19.2-57.72024s-18.13333-13.21309-5.33333-15.34643c0 0-5.33333-14.4-1.6-13.86666s72.53333 43.96741 77.86667 98.90071-88.05387 53.63262-88.05387 53.63262" fill="none" stroke="#000" stroke-miterlimit="10" stroke-width="1.5"/><path d="m751.16072 197.24339a127.14935 127.14935 0 1 0 127.14938 127.14935h-127.14938z" fill="#edeeef"/><path d="m624.01138 324.39274a127.14936 127.14936 0 0 0 254.29872 0" fill="none" stroke="#000" stroke-miterlimit="10" stroke-width="1.5"/><path d="m878.31009 324.39274h-127.14937l102.33369 75.46613a126.57218 126.57218 0 0 0 24.81568-75.46613z"/><path d="m751.16072 158.78957v165.60317h165.60322a165.60317 165.60317 0 0 0 -165.60322-165.60317z" fill="#ff6498"/><path d="m751.16072 324.39274h165.60322" fill="none" stroke="#000" stroke-miterlimit="10" stroke-width="1.5"/><path d="m777.48278 519.15329h59.13409v59.13409h-59.13409z" fill="#ff6498" transform="matrix(-1 0 0 -1 1614.09966 1097.44068)"/><path d="m852.83 523.611-45.78-45.781-45.78 45.781z" fill="#ff6498"/><g fill="#edeeef"><path d="m777.48278 665.28123h59.13409v59.13409h-59.13409z" transform="matrix(-1 0 0 -1 1614.09966 1389.69654)"/><path d="m852.83 669.738-45.78-45.78-45.78 45.78z"/><path d="m184.20876 244.43454a41.99083 41.99083 0 0 0 -42.06539 41.916l83.9815.14941a41.99086 41.99086 0 0 0 -41.91611-42.06541z"/><path d="m271.68388 262.64087a23.94014 23.94014 0 0 0 -23.98265 23.8975l47.88019.08518a23.94016 23.94016 0 0 0 -23.89754-23.98268z"/><path d="m226.20292 242.58963a43.91045 43.91045 0 0 0 -43.98841 43.83224l87.82071.15624a43.91048 43.91048 0 0 0 -43.8323-43.98848z"/></g><path d="m134.42747 286.33685 172.60958.30709" fill="none" stroke="#000" stroke-miterlimit="10" stroke-width="1.5"/><g fill="#edeeef"><path d="m242.868 352.87387a19.24944 19.24944 0 0 1 19.28366 19.21513l-38.4988.06849a19.24945 19.24945 0 0 1 19.21514-19.28362z"/><path d="m202.76768 361.22a10.97466 10.97466 0 0 1 10.99414 10.9551l-21.94925.03905a10.97465 10.97465 0 0 1 10.95511-10.99415z"/><path d="m223.61707 352.02813a20.12944 20.12944 0 0 1 20.16518 20.09358l-40.25878.07162a20.12944 20.12944 0 0 1 20.0936-20.1652z"/></g><path d="m265.68879 372.08274-79.12771.14077" fill="none" stroke="#000" stroke-miterlimit="10" stroke-width="1.5"/></svg>