<svg viewBox="0 0 1000 1000" xmlns="http://www.w3.org/2000/svg"><path d="m245.015 772.625 23.625 20.516 63.001-80.561 28.351 23.727 149.627-196.746 132.303 233.064 36.225-40.03 66.152 108.615h-554.41z" fill="#f4f4f4"/><path d="m764.16844 841.21043h-594.14949" fill="none" stroke="#000" stroke-miterlimit="10" stroke-width="1.5"/><path d="m321.33266 431.576s-237.36475 301.32369 186.21407 290.52423l16.79916 14.39928v-101.10627l-145.13324-32.08707 17.0431-185.9907" fill="#ff6498"/><path d="m384.28991 547.90036c-43.82344 2.29882-78.916 60.74336-78.916 132.51445 0 1.57324.023 3.1375.05625 4.69726 32.31172 20.782 82.85625 34.78711 159.01992 36.9709a209.35652 209.35652 0 0 0 4.11563-41.66816 202.33347 202.33347 0 0 0 -8.58672-59.25234l-80.76641-17.85625z"/><path d="m342.68028 436.82293s-16.14966 263.58907 29.46333 388.38907l-9.52783 13.99844h81.12783s8.86309-335.27031 8.86309-407.63437z" fill="#ff6498"/><path d="m404.319 232.881v34.256l-42.436 10.43v-57.809l42.436-10.43z" fill="#edeeef"/><circle cx="380.3473" cy="243.59823" r="1.13465"/><circle cx="397.77471" cy="243.59823" r="1.13465"/><g fill="none" stroke="#000" stroke-miterlimit="10" stroke-width="1.5"><path d="m392.662 250.367v-17.486h8.76"/><path d="m378.20976 232.88104h8.75992"/><path d="m402.78525 230.01787h-.00001"/></g><path d="m364.67792 241.84038v6.07226a5.93084 5.93084 0 0 1 -5.93084-5.93083q0-.273.02424-.53983c.33229-3.68287 5.9066-3.29943 5.9066.3984z" fill="#edeeef"/><g fill="none" stroke-width="1.5"><path d="m364.67792 247.91264a5.93084 5.93084 0 0 1 -5.93084-5.93083" stroke="#000" stroke-miterlimit="10"/><path d="m388.83057 254.6775a6.00273 6.00273 0 0 1 -6.00273-6.00274" stroke="#ff6498" stroke-linecap="round" stroke-linejoin="round"/><g stroke="#000" stroke-miterlimit="10"><path d="m404.31908 267.13674-42.43617 10.4301"/><path d="m392.66192 250.38082-3.83135.94168" stroke-linecap="round"/></g></g><path d="m321.33266 338.9096v92.6664l131.274 32.265v-103.20508a79.49343 79.49343 0 0 0 -60.52-77.19594h-.00013a57.12046 57.12046 0 0 0 -70.75394 55.46958z" fill="#edeeef"/><g fill="none" stroke-width="1.5"><g stroke="#000" stroke-miterlimit="10"><path d="m342.68028 436.82293s-16.14966 263.58907 29.46333 388.38907"/><path d="m360.46839 239.08206s-5.70426-18.89616 3.29574-26.69616 48.8-5.8 48.8-5.8 2.8 27.6-38.2 21c0 0-.5958 7.64818-7.4 9"/><path d="m417.03779 294.37586s59.85967 38.41743 48.65967 142.44707-164.26667-27.70369-168.53333-37.30369 11.73333-17.6 31.46666-6.4c0 0-8-6.71634-4.26666-7.62484s11.348 1.75817 15.54067 10.2915l92.726 17.06667"/><path d="m323.999 387.386h-92.435l-40.533-93.709"/></g><path d="m196.7048 303.7859 143.2-77.6" stroke="#ff6498" stroke-linecap="round" stroke-linejoin="round"/><g stroke="#000" stroke-miterlimit="10"><path d="m338.98632 297.61961s-32.81085 30.96629-42.51652 89.76629"/><path d="m250.76413 387.3859s23.48851 66.53231 50.74425 73.06616"/><path d="m287.56413 387.3859s-11.58532-16.13333-19.25933-19.86666-30.874 4.8-27.94067 8.8 8.26666 1.86666 8.26666 1.86666-1.33333 4 1.06667 5.06667"/></g></g><path d="m761.26691 168.9899c.00648-.30712.01162-.61445.01162-.92291a42.52713 42.52713 0 0 0 -61.36926-38.11394 89.21038 89.21038 0 0 0 -162.39563 42.2637 81.00647 81.00647 0 0 0 -55.3262 76.82425v.00022a80.97427 80.97427 0 0 0 80.97423 80.97423h185.84515a80.97427 80.97427 0 0 0 80.97423-80.97423v-.00022a80.99317 80.99317 0 0 0 -68.71414-80.0511z" fill="#edeeef"/><g fill="none" stroke="#000" stroke-miterlimit="10" stroke-width="1.5"><path d="m699.90927 129.95305a89.107 89.107 0 0 0 -73.56557-38.74315"/><path d="m761.27853 168.067a42.5158 42.5158 0 0 0 -42.51576-42.51587"/><path d="m563.16167 330.01545h185.84515a80.97427 80.97427 0 0 0 80.97423-80.97423"/></g><path d="m613.05021 336.95123h86.06807v86.06807h-86.06807z" transform="matrix(-1 0 0 -1 1312.16849 759.97054)"/><path d="m722.716 343.439-66.632-66.632-66.632 66.632z"/><g fill="#d6d6d6"><path d="m613.05021 506.19154h86.06807v86.06807h-86.06807z" transform="matrix(-1 0 0 -1 1312.16849 1098.45116)"/><path d="m722.716 512.679-66.632-66.632-66.632 66.632z"/><path d="m613.27752 675.431h86.06807v86.06807h-86.06807z" transform="matrix(-.99997143 .00755895 -.00755895 -.99997143 1318.03519 1431.94853)"/><path d="m722.665 681.416-67.133-66.127-66.127 67.134z"/></g></svg>